<svg width="672.5" height="1380" viewBox="0 0 672.5 1380" xmlns="http://www.w3.org/2000/svg">
<style>
    svg {
        font-family: Menlo,SFMono-Regular,Consolas,Liberation Mono,monospace;
        font-size: 14px;
        font-kerning: normal;
        text-rendering: optimizeLegibility;
        fill: #24292e;
    }

    rect {
        fill: #f6f8fa;
        stroke: #d6d8da;
        stroke-width: 1;
    }

    .held {
        fill: #fdd;
    }

    .combo {
        fill: #cdf;
    }

    .ghost {
        fill: #ddd;
    }

    text {
        text-anchor: middle;
        dominant-baseline: middle;
    }

    .label {
        font-weight: bold;
        text-anchor: start;
        stroke: white;
        stroke-width: 2;
        paint-order: stroke;
    }

    .small {
        font-size: 80%;
    }
</style>
<text x="27.5" y="25.0" class="label">Alpha:</text>
<rect rx="6" ry="6" x="29.5" y="52" width="55" height="50"/>
<text x="57.0" y="77.0">W</text>
<rect rx="6" ry="6" x="88.5" y="52" width="55" height="50"/>
<text x="116.0" y="77.0">L</text>
<rect rx="6" ry="6" x="147.5" y="52" width="55" height="50"/>
<text x="175.0" y="77.0">Y</text>
<rect rx="6" ry="6" x="206.5" y="52" width="55" height="50"/>
<text x="234.0" y="77.0">P</text>
<rect rx="6" ry="6" x="265.5" y="52" width="55" height="50"/>
<text x="293.0" y="77.0">B</text>
<rect rx="6" ry="6" x="29.5" y="106" width="55" height="50"/>
<text x="57.0" y="131.0">C</text>
<rect rx="6" ry="6" x="88.5" y="106" width="55" height="50"/>
<text x="116.0" y="131.0">R</text>
<rect rx="6" ry="6" x="147.5" y="106" width="55" height="50"/>
<text x="175.0" y="131.0">S</text>
<rect rx="6" ry="6" x="206.5" y="106" width="55" height="50"/>
<text x="234.0" y="131.0">T</text>
<rect rx="6" ry="6" x="265.5" y="106" width="55" height="50"/>
<text x="293.0" y="131.0">G</text>
<rect rx="6" ry="6" x="29.5" y="160" width="55" height="50"/>
<text x="57.0" y="185.0">Q</text>
<rect rx="6" ry="6" x="88.5" y="160" width="55" height="50"/>
<text x="116.0" y="185.0">J</text>
<rect rx="6" ry="6" x="147.5" y="160" width="55" height="50"/>
<text x="175.0" y="185.0">V</text>
<rect rx="6" ry="6" x="206.5" y="160" width="55" height="50"/>
<text x="234.0" y="185.0">D</text>
<rect rx="6" ry="6" x="265.5" y="160" width="55" height="50"/>
<text x="293.0" y="185.0">K</text>
<rect rx="6" ry="6" x="352.0" y="52" width="55" height="50"/>
<text x="379.5" y="77.0">Z</text>
<rect rx="6" ry="6" x="411.0" y="52" width="55" height="50"/>
<text x="438.5" y="77.0">F</text>
<rect rx="6" ry="6" x="470.0" y="52" width="55" height="50"/>
<text x="497.5" y="77.0">O</text>
<rect rx="6" ry="6" x="529.0" y="52" width="55" height="50"/>
<text x="556.5" y="77.0">U</text>
<rect rx="6" ry="6" x="588.0" y="52" width="55" height="50"/>
<text x="615.5" y="77.0">&#x27;</text>
<rect rx="6" ry="6" x="352.0" y="106" width="55" height="50"/>
<text x="379.5" y="131.0">M</text>
<rect rx="6" ry="6" x="411.0" y="106" width="55" height="50"/>
<text x="438.5" y="131.0">N</text>
<rect rx="6" ry="6" x="470.0" y="106" width="55" height="50"/>
<text x="497.5" y="131.0">E</text>
<rect rx="6" ry="6" x="529.0" y="106" width="55" height="50"/>
<text x="556.5" y="131.0">I</text>
<rect rx="6" ry="6" x="588.0" y="106" width="55" height="50"/>
<text x="615.5" y="131.0">A</text>
<rect rx="6" ry="6" x="352.0" y="160" width="55" height="50"/>
<text x="379.5" y="185.0">X</text>
<rect rx="6" ry="6" x="411.0" y="160" width="55" height="50"/>
<text x="438.5" y="185.0">H</text>
<rect rx="6" ry="6" x="470.0" y="160" width="55" height="50"/>
<text x="497.5" y="185.0">.</text>
<rect rx="6" ry="6" x="529.0" y="160" width="55" height="50"/>
<text x="556.5" y="185.0">,</text>
<rect rx="6" ry="6" x="588.0" y="160" width="55" height="50"/>
<text x="615.5" y="185.0">↵</text>
<rect rx="6" ry="6" x="206.5" y="214" width="55" height="50"/>
<text x="234.0" y="239.0">Symbol</text>
<rect rx="6" ry="6" x="265.5" y="214" width="55" height="50"/>
<text x="293.0" y="239.0">⌫</text>
<rect rx="6" ry="6" x="352.0" y="214" width="55" height="50"/>
<text x="379.5" y="239.0">Space</text>
<rect rx="6" ry="6" x="411.0" y="214" width="55" height="50"/>
<text x="438.5" y="239.0">Number</text>
<rect rx="6" ry="6" x="483.75" y="145.5" width="27.5" height="25.0" class="combo"/>
<text x="497.5" y="158.0" class="small">!</text>
<rect rx="6" ry="6" x="542.75" y="145.5" width="27.5" height="25.0" class="combo"/>
<text x="556.5" y="158.0" class="small">?</text>
<rect rx="6" ry="6" x="601.75" y="145.5" width="27.5" height="25.0" class="combo"/>
<text x="615.5" y="158.0" class="small">:</text>
<rect rx="6" ry="6" x="601.75" y="91.5" width="27.5" height="25.0" class="combo"/>
<text x="615.5" y="104.0" class="small">;</text>
<rect rx="6" ry="6" x="322.5" y="226.5" width="27.5" height="25.0" class="combo"/>
<text x="336.25" y="239.0" class="small">⌫Word</text>
<text x="27.5" y="291.0" class="label">
<tspan x="27.5" dy="-0.6em">Alpha</tspan><tspan x="27.5" dy="1.2em">(hold):</tspan>
</text>
<rect rx="6" ry="6" x="29.5" y="318" width="55" height="50"/>
<text x="57.0" y="343.0">⌘W</text>
<rect rx="6" ry="6" x="88.5" y="318" width="55" height="50"/>
<text x="116.0" y="343.0">⌘L</text>
<rect rx="6" ry="6" x="147.5" y="318" width="55" height="50"/>
<text x="175.0" y="343.0">⌘Y</text>
<rect rx="6" ry="6" x="206.5" y="318" width="55" height="50"/>
<text x="234.0" y="343.0">⌘P</text>
<rect rx="6" ry="6" x="265.5" y="318" width="55" height="50"/>
<text x="293.0" y="343.0">⌘B</text>
<rect rx="6" ry="6" x="29.5" y="372" width="55" height="50"/>
<text x="57.0" y="397.0">⌘C</text>
<rect rx="6" ry="6" x="88.5" y="372" width="55" height="50"/>
<text x="116.0" y="397.0">⌘R</text>
<rect rx="6" ry="6" x="147.5" y="372" width="55" height="50"/>
<text x="175.0" y="397.0">⌘S</text>
<rect rx="6" ry="6" x="206.5" y="372" width="55" height="50"/>
<text x="234.0" y="397.0">⌘T</text>
<rect rx="6" ry="6" x="265.5" y="372" width="55" height="50"/>
<text x="293.0" y="397.0">⌘G</text>
<rect rx="6" ry="6" x="29.5" y="426" width="55" height="50"/>
<text x="57.0" y="451.0">⌘Q</text>
<rect rx="6" ry="6" x="88.5" y="426" width="55" height="50"/>
<text x="116.0" y="451.0">⌘J</text>
<rect rx="6" ry="6" x="147.5" y="426" width="55" height="50"/>
<text x="175.0" y="451.0">⌘V</text>
<rect rx="6" ry="6" x="206.5" y="426" width="55" height="50"/>
<text x="234.0" y="451.0">⌘D</text>
<rect rx="6" ry="6" x="265.5" y="426" width="55" height="50"/>
<text x="293.0" y="451.0">⌘K</text>
<rect rx="6" ry="6" x="352.0" y="318" width="55" height="50"/>
<text x="379.5" y="343.0">⌘Z</text>
<rect rx="6" ry="6" x="411.0" y="318" width="55" height="50"/>
<text x="438.5" y="343.0">⌘F</text>
<rect rx="6" ry="6" x="470.0" y="318" width="55" height="50"/>
<text x="497.5" y="343.0">⌘O</text>
<rect rx="6" ry="6" x="529.0" y="318" width="55" height="50"/>
<text x="556.5" y="343.0">⌘U</text>
<rect rx="6" ry="6" x="588.0" y="318" width="55" height="50"/>
<text x="615.5" y="343.0">Esc</text>
<rect rx="6" ry="6" x="352.0" y="372" width="55" height="50"/>
<text x="379.5" y="397.0">⌘M</text>
<rect rx="6" ry="6" x="411.0" y="372" width="55" height="50"/>
<text x="438.5" y="397.0">⌘N</text>
<rect rx="6" ry="6" x="470.0" y="372" width="55" height="50"/>
<text x="497.5" y="397.0">⌘E</text>
<rect rx="6" ry="6" x="529.0" y="372" width="55" height="50"/>
<text x="556.5" y="397.0">⌘I</text>
<rect rx="6" ry="6" x="588.0" y="372" width="55" height="50"/>
<text x="615.5" y="397.0">⌘A</text>
<rect rx="6" ry="6" x="352.0" y="426" width="55" height="50"/>
<text x="379.5" y="451.0">⌘X</text>
<rect rx="6" ry="6" x="411.0" y="426" width="55" height="50"/>
<text x="438.5" y="451.0">⌘H</text>
<rect rx="6" ry="6" x="470.0" y="426" width="55" height="50"/>
<text x="497.5" y="451.0">Tab</text>
<rect rx="6" ry="6" x="529.0" y="426" width="55" height="50"/>
<text x="556.5" y="451.0">Launch</text>
<rect rx="6" ry="6" x="588.0" y="426" width="55" height="50"/>
<text x="615.5" y="451.0">⌘↵</text>
<rect rx="6" ry="6" x="206.5" y="480" width="55" height="50"/>
<text x="234.0" y="505.0">Symbol</text>
<rect rx="6" ry="6" x="265.5" y="480" width="55" height="50"/>
<text x="293.0" y="505.0">Shift</text>
<rect rx="6" ry="6" x="352.0" y="480" width="55" height="50"/>
<text x="379.5" y="505.0">Ctrl</text>
<rect rx="6" ry="6" x="411.0" y="480" width="55" height="50"/>
<text x="438.5" y="505.0">Number</text>
<rect rx="6" ry="6" x="322.5" y="492.5" width="27.5" height="25.0" class="combo"/>
<text x="336.25" y="505.0" class="small">Hyper</text>
<text x="27.5" y="557.0" class="label">Symbol:</text>
<rect rx="6" ry="6" x="29.5" y="584" width="55" height="50"/>
<text x="57.0" y="609.0">`</text>
<rect rx="6" ry="6" x="88.5" y="584" width="55" height="50"/>
<text x="116.0" y="609.0">~</text>
<rect rx="6" ry="6" x="147.5" y="584" width="55" height="50"/>
<text x="175.0" y="609.0">\</text>
<rect rx="6" ry="6" x="206.5" y="584" width="55" height="50"/>
<text x="234.0" y="609.0">{</text>
<rect rx="6" ry="6" x="265.5" y="584" width="55" height="50"/>
<text x="293.0" y="609.0">$</text>
<rect rx="6" ry="6" x="29.5" y="638" width="55" height="50"/>
<text x="57.0" y="663.0">&amp;</text>
<rect rx="6" ry="6" x="88.5" y="638" width="55" height="50"/>
<text x="116.0" y="663.0">*</text>
<rect rx="6" ry="6" x="147.5" y="638" width="55" height="50"/>
<text x="175.0" y="663.0">=</text>
<rect rx="6" ry="6" x="206.5" y="638" width="55" height="50"/>
<text x="234.0" y="663.0">(</text>
<rect rx="6" ry="6" x="265.5" y="638" width="55" height="50"/>
<text x="293.0" y="663.0">&lt;</text>
<rect rx="6" ry="6" x="29.5" y="692" width="55" height="50"/>
<text x="57.0" y="717.0">—</text>
<rect rx="6" ry="6" x="88.5" y="692" width="55" height="50"/>
<text x="116.0" y="717.0">@</text>
<rect rx="6" ry="6" x="147.5" y="692" width="55" height="50"/>
<text x="175.0" y="717.0">_</text>
<rect rx="6" ry="6" x="206.5" y="692" width="55" height="50"/>
<text x="234.0" y="717.0">[</text>
<rect rx="6" ry="6" x="265.5" y="692" width="55" height="50"/>
<text x="293.0" y="717.0">…</text>
<rect rx="6" ry="6" x="352.0" y="584" width="55" height="50"/>
<text x="379.5" y="609.0">%</text>
<rect rx="6" ry="6" x="411.0" y="584" width="55" height="50"/>
<text x="438.5" y="609.0">}</text>
<rect rx="6" ry="6" x="470.0" y="584" width="55" height="50"/>
<text x="497.5" y="609.0">/</text>
<rect rx="6" ry="6" x="529.0" y="584" width="55" height="50"/>
<text x="556.5" y="609.0">#</text>
<rect rx="6" ry="6" x="588.0" y="584" width="55" height="50"/>
<text x="615.5" y="609.0">&#x27;</text>
<rect rx="6" ry="6" x="352.0" y="638" width="55" height="50"/>
<text x="379.5" y="663.0">&gt;</text>
<rect rx="6" ry="6" x="411.0" y="638" width="55" height="50"/>
<text x="438.5" y="663.0">)</text>
<rect rx="6" ry="6" x="470.0" y="638" width="55" height="50"/>
<text x="497.5" y="663.0">-</text>
<rect rx="6" ry="6" x="529.0" y="638" width="55" height="50"/>
<text x="556.5" y="663.0">+</text>
<rect rx="6" ry="6" x="588.0" y="638" width="55" height="50"/>
<text x="615.5" y="663.0">|</text>
<rect rx="6" ry="6" x="352.0" y="692" width="55" height="50"/>
<text x="379.5" y="717.0">^</text>
<rect rx="6" ry="6" x="411.0" y="692" width="55" height="50"/>
<text x="438.5" y="717.0">]</text>
<rect rx="6" ry="6" x="470.0" y="692" width="55" height="50"/>
<text x="497.5" y="717.0">.</text>
<rect rx="6" ry="6" x="529.0" y="692" width="55" height="50"/>
<text x="556.5" y="717.0">,</text>
<rect rx="6" ry="6" x="588.0" y="692" width="55" height="50"/>
<text x="615.5" y="717.0">↵</text>
<rect rx="6" ry="6" x="206.5" y="746" width="55" height="50"/>
<text x="234.0" y="771.0">Alpha</text>
<rect rx="6" ry="6" x="265.5" y="746" width="55" height="50"/>
<text x="293.0" y="771.0">⌫</text>
<rect rx="6" ry="6" x="352.0" y="746" width="55" height="50"/>
<text x="379.5" y="771.0">Space</text>
<rect rx="6" ry="6" x="411.0" y="746" width="55" height="50"/>
<text x="438.5" y="771.0">Number</text>
<rect rx="6" ry="6" x="483.75" y="677.5" width="27.5" height="25.0" class="combo"/>
<text x="497.5" y="690.0" class="small">!</text>
<rect rx="6" ry="6" x="542.75" y="677.5" width="27.5" height="25.0" class="combo"/>
<text x="556.5" y="690.0" class="small">?</text>
<rect rx="6" ry="6" x="601.75" y="677.5" width="27.5" height="25.0" class="combo"/>
<text x="615.5" y="690.0" class="small">:</text>
<rect rx="6" ry="6" x="601.75" y="623.5" width="27.5" height="25.0" class="combo"/>
<text x="615.5" y="636.0" class="small">;</text>
<rect rx="6" ry="6" x="322.5" y="758.5" width="27.5" height="25.0" class="combo"/>
<text x="336.25" y="771.0" class="small">⌫Word</text>
<text x="27.5" y="823.0" class="label">Number:</text>
<rect rx="6" ry="6" x="29.5" y="850" width="55" height="50"/>
<text x="57.0" y="875.0">BrUp</text>
<rect rx="6" ry="6" x="88.5" y="850" width="55" height="50"/>
<text x="116.0" y="875.0">7</text>
<rect rx="6" ry="6" x="147.5" y="850" width="55" height="50"/>
<text x="175.0" y="875.0">8</text>
<rect rx="6" ry="6" x="206.5" y="850" width="55" height="50"/>
<text x="234.0" y="875.0">9</text>
<rect rx="6" ry="6" x="265.5" y="850" width="55" height="50"/>
<text x="293.0" y="875.0">ScrSh</text>
<rect rx="6" ry="6" x="29.5" y="904" width="55" height="50"/>
<text x="57.0" y="929.0">Lang</text>
<rect rx="6" ry="6" x="88.5" y="904" width="55" height="50"/>
<text x="116.0" y="929.0">4</text>
<rect rx="6" ry="6" x="147.5" y="904" width="55" height="50"/>
<text x="175.0" y="929.0">5</text>
<rect rx="6" ry="6" x="206.5" y="904" width="55" height="50"/>
<text x="234.0" y="929.0">6</text>
<rect rx="6" ry="6" x="265.5" y="904" width="55" height="50"/>
<text x="293.0" y="929.0">0</text>
<rect rx="6" ry="6" x="29.5" y="958" width="55" height="50"/>
<text x="57.0" y="983.0">BrDown</text>
<rect rx="6" ry="6" x="88.5" y="958" width="55" height="50"/>
<text x="116.0" y="983.0">1</text>
<rect rx="6" ry="6" x="147.5" y="958" width="55" height="50"/>
<text x="175.0" y="983.0">2</text>
<rect rx="6" ry="6" x="206.5" y="958" width="55" height="50"/>
<text x="234.0" y="983.0">3</text>
<rect rx="6" ry="6" x="265.5" y="958" width="55" height="50"/>
<text x="293.0" y="983.0">Lock</text>
<rect rx="6" ry="6" x="352.0" y="850" width="55" height="50"/>
<text x="379.5" y="875.0">Mute</text>
<rect rx="6" ry="6" x="411.0" y="850" width="55" height="50"/>
<text x="438.5" y="875.0">Prev</text>
<rect rx="6" ry="6" x="470.0" y="850" width="55" height="50"/>
<text x="497.5" y="875.0">PlPaus</text>
<rect rx="6" ry="6" x="529.0" y="850" width="55" height="50"/>
<text x="556.5" y="875.0">Next</text>
<rect rx="6" ry="6" x="588.0" y="850" width="55" height="50"/>
<text x="615.5" y="875.0">&#x27;</text>
<rect rx="6" ry="6" x="352.0" y="904" width="55" height="50"/>
<text x="379.5" y="929.0">VolUp</text>
<rect rx="6" ry="6" x="411.0" y="904" width="55" height="50"/>
<text x="438.5" y="929.0">←</text>
<rect rx="6" ry="6" x="470.0" y="904" width="55" height="50"/>
<text x="497.5" y="929.0">↓</text>
<rect rx="6" ry="6" x="529.0" y="904" width="55" height="50"/>
<text x="556.5" y="929.0">↑</text>
<rect rx="6" ry="6" x="588.0" y="904" width="55" height="50"/>
<text x="615.5" y="929.0">→</text>
<rect rx="6" ry="6" x="352.0" y="958" width="55" height="50"/>
<text x="379.5" y="983.0">VolDwn</text>
<rect rx="6" ry="6" x="411.0" y="958" width="55" height="50"/>
<rect rx="6" ry="6" x="470.0" y="958" width="55" height="50"/>
<text x="497.5" y="983.0">.</text>
<rect rx="6" ry="6" x="529.0" y="958" width="55" height="50"/>
<text x="556.5" y="983.0">,</text>
<rect rx="6" ry="6" x="588.0" y="958" width="55" height="50"/>
<text x="615.5" y="983.0">↵</text>
<rect rx="6" ry="6" x="206.5" y="1012" width="55" height="50"/>
<text x="234.0" y="1037.0">Alpha</text>
<rect rx="6" ry="6" x="265.5" y="1012" width="55" height="50"/>
<text x="293.0" y="1037.0">⌫</text>
<rect rx="6" ry="6" x="352.0" y="1012" width="55" height="50"/>
<text x="379.5" y="1037.0">Space</text>
<rect rx="6" ry="6" x="411.0" y="1012" width="55" height="50"/>
<text x="438.5" y="1037.0">Symbol</text>
<rect rx="6" ry="6" x="483.75" y="943.5" width="27.5" height="25.0" class="combo"/>
<text x="497.5" y="956.0" class="small">!</text>
<rect rx="6" ry="6" x="542.75" y="943.5" width="27.5" height="25.0" class="combo"/>
<text x="556.5" y="956.0" class="small">?</text>
<rect rx="6" ry="6" x="601.75" y="943.5" width="27.5" height="25.0" class="combo"/>
<text x="615.5" y="956.0" class="small">:</text>
<rect rx="6" ry="6" x="601.75" y="889.5" width="27.5" height="25.0" class="combo"/>
<text x="615.5" y="902.0" class="small">;</text>
<rect rx="6" ry="6" x="322.5" y="1024.5" width="27.5" height="25.0" class="combo"/>
<text x="336.25" y="1037.0" class="small">⌫Word</text>
<text x="27.5" y="1089.0" class="label">Function:</text>
<rect rx="6" ry="6" x="29.5" y="1116" width="55" height="50"/>
<text x="57.0" y="1141.0">Bootl</text>
<rect rx="6" ry="6" x="88.5" y="1116" width="55" height="50"/>
<rect rx="6" ry="6" x="147.5" y="1116" width="55" height="50"/>
<rect rx="6" ry="6" x="206.5" y="1116" width="55" height="50"/>
<rect rx="6" ry="6" x="265.5" y="1116" width="55" height="50"/>
<rect rx="6" ry="6" x="29.5" y="1170" width="55" height="50"/>
<rect rx="6" ry="6" x="88.5" y="1170" width="55" height="50"/>
<rect rx="6" ry="6" x="147.5" y="1170" width="55" height="50"/>
<rect rx="6" ry="6" x="206.5" y="1170" width="55" height="50"/>
<rect rx="6" ry="6" x="265.5" y="1170" width="55" height="50"/>
<rect rx="6" ry="6" x="29.5" y="1224" width="55" height="50"/>
<rect rx="6" ry="6" x="88.5" y="1224" width="55" height="50"/>
<rect rx="6" ry="6" x="147.5" y="1224" width="55" height="50"/>
<rect rx="6" ry="6" x="206.5" y="1224" width="55" height="50"/>
<rect rx="6" ry="6" x="265.5" y="1224" width="55" height="50"/>
<rect rx="6" ry="6" x="352.0" y="1116" width="55" height="50"/>
<rect rx="6" ry="6" x="411.0" y="1116" width="55" height="50"/>
<rect rx="6" ry="6" x="470.0" y="1116" width="55" height="50"/>
<rect rx="6" ry="6" x="529.0" y="1116" width="55" height="50"/>
<rect rx="6" ry="6" x="588.0" y="1116" width="55" height="50"/>
<text x="615.5" y="1141.0">Bootl</text>
<rect rx="6" ry="6" x="352.0" y="1170" width="55" height="50"/>
<rect rx="6" ry="6" x="411.0" y="1170" width="55" height="50"/>
<rect rx="6" ry="6" x="470.0" y="1170" width="55" height="50"/>
<rect rx="6" ry="6" x="529.0" y="1170" width="55" height="50"/>
<rect rx="6" ry="6" x="588.0" y="1170" width="55" height="50"/>
<rect rx="6" ry="6" x="352.0" y="1224" width="55" height="50"/>
<rect rx="6" ry="6" x="411.0" y="1224" width="55" height="50"/>
<rect rx="6" ry="6" x="470.0" y="1224" width="55" height="50"/>
<rect rx="6" ry="6" x="529.0" y="1224" width="55" height="50"/>
<rect rx="6" ry="6" x="588.0" y="1224" width="55" height="50"/>
<rect rx="6" ry="6" x="206.5" y="1278" width="55" height="50"/>
<text x="234.0" y="1303.0">Alpha</text>
<rect rx="6" ry="6" x="265.5" y="1278" width="55" height="50"/>
<rect rx="6" ry="6" x="352.0" y="1278" width="55" height="50"/>
<rect rx="6" ry="6" x="411.0" y="1278" width="55" height="50"/>
</svg>
