<svg width="732.0" height="1400.0" viewBox="0 0 732.0 1400.0" xmlns="http://www.w3.org/2000/svg">
<style>/* font and background color specifications */
svg {
    font-family: SFMono-Regular,Consolas,Liberation Mono,Menlo,monospace;
    font-size: 14px;
    font-kerning: normal;
    text-rendering: optimizeLegibility;
    fill: #24292e;
}

/* default key styling */
rect {
    fill: #f6f8fa;
    stroke: #d6d8da;
    stroke-width: 1;
}

/* color accent for held keys */
.held {
    fill: #fdd;
}

/* color accent for combo boxes */
.combo {
    fill: #cdf;
}

/* color accent for ghost (optional) keys */
.ghost {
    fill: #ddd;
}

text {
    text-anchor: middle;
    dominant-baseline: middle;
}

/* styling for layer labels */
.label {
    font-weight: bold;
    text-anchor: start;
    stroke: white;
    stroke-width: 2;
    paint-order: stroke;
}

/* styling for combo box and hold-tap hold label text */
.small {
    font-size: 11px;
}

/* styling for hold-tap hold label text in combo box */
.smaller {
    font-size: 8px;
}

/* styling for combo dendrons */
path {
    stroke-width: 1;
    stroke: gray;
    fill: none;
}
</style>
<text x="30.0" y="28.0" class="label">Alpha:</text>
<rect rx="6.0" ry="6.0" x="32.0" y="110.08000000000001" width="52.0" height="52.0"/>
<text x="58.0" y="136.08">W</text>
<text x="58.0" y="155.08" class="small">⌘W</text>
<rect rx="6.0" ry="6.0" x="88.0" y="75.36" width="52.0" height="52.0"/>
<text x="114.0" y="101.36">L</text>
<text x="114.0" y="120.36" class="small">⌘L</text>
<rect rx="6.0" ry="6.0" x="144.0" y="58.0" width="52.0" height="52.0"/>
<text x="170.0" y="84.0">Y</text>
<text x="170.0" y="103.0" class="small">⌘Y</text>
<rect rx="6.0" ry="6.0" x="200.0" y="73.68" width="52.0" height="52.0"/>
<text x="226.0" y="99.68">P</text>
<text x="226.0" y="118.68" class="small">⌘P</text>
<rect rx="6.0" ry="6.0" x="256.0" y="81.52" width="52.0" height="52.0"/>
<text x="282.0" y="107.52">B</text>
<text x="282.0" y="126.52" class="small">⌘B</text>
<rect rx="6.0" ry="6.0" x="424.0" y="81.52" width="52.0" height="52.0"/>
<text x="450.0" y="107.52">Z</text>
<text x="450.0" y="126.52" class="small">⌘Z</text>
<rect rx="6.0" ry="6.0" x="480.0" y="73.68" width="52.0" height="52.0"/>
<text x="506.0" y="99.68">F</text>
<text x="506.0" y="118.68" class="small">⌘F</text>
<rect rx="6.0" ry="6.0" x="536.0" y="58.0" width="52.0" height="52.0"/>
<text x="562.0" y="84.0">O</text>
<text x="562.0" y="103.0" class="small">⌘O</text>
<rect rx="6.0" ry="6.0" x="592.0" y="75.36" width="52.0" height="52.0"/>
<text x="618.0" y="101.36">U</text>
<text x="618.0" y="120.36" class="small">⌘U</text>
<rect rx="6.0" ry="6.0" x="648.0" y="110.08000000000001" width="52.0" height="52.0"/>
<text x="674.0" y="136.08">&#x27;</text>
<text x="674.0" y="155.08" class="small">⎋</text>
<rect rx="6.0" ry="6.0" x="32.0" y="166.07999999999998" width="52.0" height="52.0"/>
<text x="58.0" y="192.07999999999998">C</text>
<text x="58.0" y="211.07999999999998" class="small">⌘C</text>
<rect rx="6.0" ry="6.0" x="88.0" y="131.36" width="52.0" height="52.0"/>
<text x="114.0" y="157.36">R</text>
<text x="114.0" y="176.36" class="small">⌘R</text>
<rect rx="6.0" ry="6.0" x="144.0" y="114.0" width="52.0" height="52.0"/>
<text x="170.0" y="140.0">S</text>
<text x="170.0" y="159.0" class="small">⌘S</text>
<rect rx="6.0" ry="6.0" x="200.0" y="129.68" width="52.0" height="52.0"/>
<text x="226.0" y="155.68">T</text>
<text x="226.0" y="174.68" class="small">⌘T</text>
<rect rx="6.0" ry="6.0" x="256.0" y="137.51999999999998" width="52.0" height="52.0"/>
<text x="282.0" y="163.51999999999998">G</text>
<text x="282.0" y="182.51999999999998" class="small">⌘G</text>
<rect rx="6.0" ry="6.0" x="424.0" y="137.51999999999998" width="52.0" height="52.0"/>
<text x="450.0" y="163.51999999999998">M</text>
<text x="450.0" y="182.51999999999998" class="small">⌘M</text>
<rect rx="6.0" ry="6.0" x="480.0" y="129.68" width="52.0" height="52.0"/>
<text x="506.0" y="155.68">N</text>
<text x="506.0" y="174.68" class="small">⌘N</text>
<rect rx="6.0" ry="6.0" x="536.0" y="114.0" width="52.0" height="52.0"/>
<text x="562.0" y="140.0">E</text>
<text x="562.0" y="159.0" class="small">⌘E</text>
<rect rx="6.0" ry="6.0" x="592.0" y="131.36" width="52.0" height="52.0"/>
<text x="618.0" y="157.36">I</text>
<text x="618.0" y="176.36" class="small">⌘I</text>
<rect rx="6.0" ry="6.0" x="648.0" y="166.07999999999998" width="52.0" height="52.0"/>
<text x="674.0" y="192.07999999999998">A</text>
<text x="674.0" y="211.07999999999998" class="small">⌘A</text>
<rect rx="6.0" ry="6.0" x="32.0" y="222.08" width="52.0" height="52.0"/>
<text x="58.0" y="248.08">Q</text>
<text x="58.0" y="267.08000000000004" class="small">⌘Q</text>
<rect rx="6.0" ry="6.0" x="88.0" y="187.36" width="52.0" height="52.0"/>
<text x="114.0" y="213.36">J</text>
<text x="114.0" y="232.36" class="small">⌘J</text>
<rect rx="6.0" ry="6.0" x="144.0" y="170.0" width="52.0" height="52.0"/>
<text x="170.0" y="196.0">V</text>
<text x="170.0" y="215.0" class="small">⌘V</text>
<rect rx="6.0" ry="6.0" x="200.0" y="185.67999999999998" width="52.0" height="52.0"/>
<text x="226.0" y="211.67999999999998">D</text>
<text x="226.0" y="230.67999999999998" class="small">⌘D</text>
<rect rx="6.0" ry="6.0" x="256.0" y="193.51999999999998" width="52.0" height="52.0"/>
<text x="282.0" y="219.51999999999998">K</text>
<text x="282.0" y="238.51999999999998" class="small">⌘K</text>
<rect rx="6.0" ry="6.0" x="424.0" y="193.51999999999998" width="52.0" height="52.0"/>
<text x="450.0" y="219.51999999999998">X</text>
<text x="450.0" y="238.51999999999998" class="small">⌘X</text>
<rect rx="6.0" ry="6.0" x="480.0" y="185.67999999999998" width="52.0" height="52.0"/>
<text x="506.0" y="211.67999999999998">H</text>
<text x="506.0" y="230.67999999999998" class="small">⌘H</text>
<rect rx="6.0" ry="6.0" x="536.0" y="170.0" width="52.0" height="52.0"/>
<text x="562.0" y="196.0">.</text>
<rect rx="6.0" ry="6.0" x="592.0" y="187.36" width="52.0" height="52.0"/>
<text x="618.0" y="213.36">,</text>
<text x="618.0" y="232.36" class="small">Alfred</text>
<rect rx="6.0" ry="6.0" x="648.0" y="222.08" width="52.0" height="52.0"/>
<text x="674.0" y="248.08">↵</text>
<text x="674.0" y="267.08000000000004" class="small">⌘↵</text>
<rect rx="6.0" ry="6.0" x="228.0" y="268.0" width="52.0" height="52.0"/>
<text x="254.0" y="294.0">⨧</text>
<text x="254.0" y="313.0" class="small">λ</text>
<rect rx="6.0" ry="6.0" x="284.0" y="282.0" width="52.0" height="52.0"/>
<text x="310.0" y="308.0">⌫</text>
<text x="310.0" y="327.0" class="small">⇧</text>
<rect rx="6.0" ry="6.0" x="396.0" y="282.0" width="52.0" height="52.0"/>
<text x="422.0" y="308.0">␣</text>
<text x="422.0" y="327.0" class="small">⌃</text>
<rect rx="6.0" ry="6.0" x="452.0" y="268.0" width="52.0" height="52.0"/>
<text x="478.0" y="294.0">⇥</text>
<text x="478.0" y="313.0" class="small">#</text>
<path d="M366.0,308.0 l-37.33333333333333,0.0"/>
<path d="M366.0,308.0 l37.33333333333333,0.0"/>
<rect rx="6.0" ry="6.0" x="352.0" y="295.0" width="28.0" height="26.0" class="combo"/>
<text x="366.0" y="308.0" class="small">⌫Word</text>
<text x="366.0" y="317.4" class="smaller">Hyper</text>
<rect rx="6.0" ry="6.0" x="268.0" y="288.0" width="28.0" height="26.0" class="combo"/>
<text x="282.0" y="301.0" class="small">LClk</text>
<text x="282.0" y="310.4" class="smaller">⌘LC</text>
<rect rx="6.0" ry="6.0" x="436.0" y="288.0" width="28.0" height="26.0" class="combo"/>
<text x="450.0" y="301.0" class="small">RClk</text>
<rect rx="6.0" ry="6.0" x="548.0" y="155.0" width="28.0" height="26.0" class="combo"/>
<text x="562.0" y="168.0" class="small">!</text>
<rect rx="6.0" ry="6.0" x="604.0" y="172.36" width="28.0" height="26.0" class="combo"/>
<text x="618.0" y="185.36" class="small">?</text>
<rect rx="6.0" ry="6.0" x="660.0" y="207.07999999999998" width="28.0" height="26.0" class="combo"/>
<text x="674.0" y="220.07999999999998" class="small">:</text>
<rect rx="6.0" ry="6.0" x="660.0" y="151.07999999999998" width="28.0" height="26.0" class="combo"/>
<text x="674.0" y="164.07999999999998" class="small">;</text>
<text x="30.0" y="364.0" class="label">Symbol:</text>
<rect rx="6.0" ry="6.0" x="32.0" y="446.08000000000004" width="52.0" height="52.0"/>
<text x="58.0" y="472.08000000000004">`</text>
<text x="58.0" y="491.08000000000004" class="small">⌘`</text>
<rect rx="6.0" ry="6.0" x="88.0" y="411.36" width="52.0" height="52.0"/>
<text x="114.0" y="437.36">~</text>
<text x="114.0" y="456.36" class="small">⌘~</text>
<rect rx="6.0" ry="6.0" x="144.0" y="394.0" width="52.0" height="52.0"/>
<text x="170.0" y="420.0">\</text>
<text x="170.0" y="439.0" class="small">⌘\</text>
<rect rx="6.0" ry="6.0" x="200.0" y="409.68" width="52.0" height="52.0"/>
<text x="226.0" y="435.68">{</text>
<text x="226.0" y="454.68" class="small">⌘{</text>
<rect rx="6.0" ry="6.0" x="256.0" y="417.52" width="52.0" height="52.0"/>
<text x="282.0" y="443.52">$</text>
<text x="282.0" y="462.52" class="small">⌘$</text>
<rect rx="6.0" ry="6.0" x="424.0" y="417.52" width="52.0" height="52.0"/>
<text x="450.0" y="443.52">%</text>
<text x="450.0" y="462.52" class="small">⌘%</text>
<rect rx="6.0" ry="6.0" x="480.0" y="409.68" width="52.0" height="52.0"/>
<text x="506.0" y="435.68">}</text>
<text x="506.0" y="454.68" class="small">⌘}</text>
<rect rx="6.0" ry="6.0" x="536.0" y="394.0" width="52.0" height="52.0"/>
<text x="562.0" y="420.0">/</text>
<text x="562.0" y="439.0" class="small">⌘/</text>
<rect rx="6.0" ry="6.0" x="592.0" y="411.36" width="52.0" height="52.0"/>
<text x="618.0" y="437.36">#</text>
<text x="618.0" y="456.36" class="small">⌘#</text>
<rect rx="6.0" ry="6.0" x="648.0" y="446.08000000000004" width="52.0" height="52.0"/>
<text x="674.0" y="472.08000000000004">&#x27;</text>
<text x="674.0" y="491.08000000000004" class="small">⎋</text>
<rect rx="6.0" ry="6.0" x="32.0" y="502.0799999999999" width="52.0" height="52.0"/>
<text x="58.0" y="528.0799999999999">&amp;</text>
<text x="58.0" y="547.0799999999999" class="small">⌘&amp;</text>
<rect rx="6.0" ry="6.0" x="88.0" y="467.36" width="52.0" height="52.0"/>
<text x="114.0" y="493.36">*</text>
<text x="114.0" y="512.36" class="small">⌘*</text>
<rect rx="6.0" ry="6.0" x="144.0" y="450.0" width="52.0" height="52.0"/>
<text x="170.0" y="476.0">=</text>
<text x="170.0" y="495.0" class="small">⌘=</text>
<rect rx="6.0" ry="6.0" x="200.0" y="465.68" width="52.0" height="52.0"/>
<text x="226.0" y="491.68">(</text>
<text x="226.0" y="510.68" class="small">⌘(</text>
<rect rx="6.0" ry="6.0" x="256.0" y="473.52" width="52.0" height="52.0"/>
<text x="282.0" y="499.52">&lt;</text>
<text x="282.0" y="518.52" class="small">⌘&lt;</text>
<rect rx="6.0" ry="6.0" x="424.0" y="473.52" width="52.0" height="52.0"/>
<text x="450.0" y="499.52">&gt;</text>
<text x="450.0" y="518.52" class="small">⌘&gt;</text>
<rect rx="6.0" ry="6.0" x="480.0" y="465.68" width="52.0" height="52.0"/>
<text x="506.0" y="491.68">)</text>
<text x="506.0" y="510.68" class="small">⌘)</text>
<rect rx="6.0" ry="6.0" x="536.0" y="450.0" width="52.0" height="52.0"/>
<text x="562.0" y="476.0">-</text>
<text x="562.0" y="495.0" class="small">⌘-</text>
<rect rx="6.0" ry="6.0" x="592.0" y="467.36" width="52.0" height="52.0"/>
<text x="618.0" y="493.36">+</text>
<text x="618.0" y="512.36" class="small">⌘+</text>
<rect rx="6.0" ry="6.0" x="648.0" y="502.0799999999999" width="52.0" height="52.0"/>
<text x="674.0" y="528.0799999999999">|</text>
<text x="674.0" y="547.0799999999999" class="small">⌘|</text>
<rect rx="6.0" ry="6.0" x="32.0" y="558.08" width="52.0" height="52.0"/>
<text x="58.0" y="584.08">—</text>
<text x="58.0" y="603.08" class="small">⌘—</text>
<rect rx="6.0" ry="6.0" x="88.0" y="523.36" width="52.0" height="52.0"/>
<text x="114.0" y="549.36">@</text>
<text x="114.0" y="568.36" class="small">⌘@</text>
<rect rx="6.0" ry="6.0" x="144.0" y="506.0" width="52.0" height="52.0"/>
<text x="170.0" y="532.0">_</text>
<text x="170.0" y="551.0" class="small">⌘_</text>
<rect rx="6.0" ry="6.0" x="200.0" y="521.68" width="52.0" height="52.0"/>
<text x="226.0" y="547.68">[</text>
<text x="226.0" y="566.68" class="small">⌘[</text>
<rect rx="6.0" ry="6.0" x="256.0" y="529.52" width="52.0" height="52.0"/>
<text x="282.0" y="555.52">…</text>
<text x="282.0" y="574.52" class="small">⌘…</text>
<rect rx="6.0" ry="6.0" x="424.0" y="529.52" width="52.0" height="52.0"/>
<text x="450.0" y="555.52">^</text>
<text x="450.0" y="574.52" class="small">⌘^</text>
<rect rx="6.0" ry="6.0" x="480.0" y="521.68" width="52.0" height="52.0"/>
<text x="506.0" y="547.68">]</text>
<text x="506.0" y="566.68" class="small">⌘]</text>
<rect rx="6.0" ry="6.0" x="536.0" y="506.0" width="52.0" height="52.0"/>
<text x="562.0" y="532.0">.</text>
<rect rx="6.0" ry="6.0" x="592.0" y="523.36" width="52.0" height="52.0"/>
<text x="618.0" y="549.36">,</text>
<text x="618.0" y="568.36" class="small">Alfred</text>
<rect rx="6.0" ry="6.0" x="648.0" y="558.08" width="52.0" height="52.0"/>
<text x="674.0" y="584.08">↵</text>
<text x="674.0" y="603.08" class="small">⌘↵</text>
<rect rx="6.0" ry="6.0" x="228.0" y="604.0" width="52.0" height="52.0"/>
<text x="254.0" y="630.0">λ</text>
<text x="254.0" y="649.0" class="small">λ</text>
<rect rx="6.0" ry="6.0" x="284.0" y="618.0" width="52.0" height="52.0"/>
<text x="310.0" y="644.0">⌫</text>
<text x="310.0" y="663.0" class="small">⇧</text>
<rect rx="6.0" ry="6.0" x="396.0" y="618.0" width="52.0" height="52.0"/>
<text x="422.0" y="644.0">␣</text>
<text x="422.0" y="663.0" class="small">⌃</text>
<rect rx="6.0" ry="6.0" x="452.0" y="604.0" width="52.0" height="52.0"/>
<text x="478.0" y="630.0">⇥</text>
<text x="478.0" y="649.0" class="small">#</text>
<path d="M366.0,644.0 l-37.33333333333333,0.0"/>
<path d="M366.0,644.0 l37.33333333333333,0.0"/>
<rect rx="6.0" ry="6.0" x="352.0" y="631.0" width="28.0" height="26.0" class="combo"/>
<text x="366.0" y="644.0" class="small">⌫Word</text>
<text x="366.0" y="653.4" class="smaller">Hyper</text>
<rect rx="6.0" ry="6.0" x="268.0" y="624.0" width="28.0" height="26.0" class="combo"/>
<text x="282.0" y="637.0" class="small">LClk</text>
<text x="282.0" y="646.4" class="smaller">⌘LC</text>
<rect rx="6.0" ry="6.0" x="436.0" y="624.0" width="28.0" height="26.0" class="combo"/>
<text x="450.0" y="637.0" class="small">RClk</text>
<rect rx="6.0" ry="6.0" x="548.0" y="491.0" width="28.0" height="26.0" class="combo"/>
<text x="562.0" y="504.0" class="small">!</text>
<rect rx="6.0" ry="6.0" x="604.0" y="508.36" width="28.0" height="26.0" class="combo"/>
<text x="618.0" y="521.36" class="small">?</text>
<rect rx="6.0" ry="6.0" x="660.0" y="543.0799999999999" width="28.0" height="26.0" class="combo"/>
<text x="674.0" y="556.0799999999999" class="small">:</text>
<rect rx="6.0" ry="6.0" x="660.0" y="487.08" width="28.0" height="26.0" class="combo"/>
<text x="674.0" y="500.08" class="small">;</text>
<rect rx="6.0" ry="6.0" x="44.0" y="543.0799999999999" width="28.0" height="26.0" class="combo"/>
<text x="58.0" y="556.0799999999999" class="small">¢</text>
<rect rx="6.0" ry="6.0" x="100.0" y="508.36" width="28.0" height="26.0" class="combo"/>
<text x="114.0" y="521.36" class="small">£</text>
<rect rx="6.0" ry="6.0" x="156.0" y="491.0" width="28.0" height="26.0" class="combo"/>
<text x="170.0" y="504.0" class="small">¥</text>
<rect rx="6.0" ry="6.0" x="212.0" y="506.67999999999995" width="28.0" height="26.0" class="combo"/>
<text x="226.0" y="519.68" class="small">€</text>
<rect rx="6.0" ry="6.0" x="268.0" y="514.52" width="28.0" height="26.0" class="combo"/>
<text x="282.0" y="527.52" class="small">⋯</text>
<rect rx="6.0" ry="6.0" x="212.0" y="450.68" width="28.0" height="26.0" class="combo"/>
<text x="226.0" y="463.68" class="small">•</text>
<rect rx="6.0" ry="6.0" x="156.0" y="435.0" width="28.0" height="26.0" class="combo"/>
<text x="170.0" y="448.0" class="small">°</text>
<rect rx="6.0" ry="6.0" x="44.0" y="487.08" width="28.0" height="26.0" class="combo"/>
<text x="58.0" y="500.08" class="small">∞</text>
<rect rx="6.0" ry="6.0" x="100.0" y="452.36" width="28.0" height="26.0" class="combo"/>
<text x="114.0" y="465.36" class="small">λ</text>
<rect rx="6.0" ry="6.0" x="268.0" y="458.52" width="28.0" height="26.0" class="combo"/>
<text x="282.0" y="471.52" class="small">⌘</text>
<rect rx="6.0" ry="6.0" x="436.0" y="514.52" width="28.0" height="26.0" class="combo"/>
<text x="450.0" y="527.52" class="small">✗</text>
<rect rx="6.0" ry="6.0" x="492.0" y="506.67999999999995" width="28.0" height="26.0" class="combo"/>
<text x="506.0" y="519.68" class="small">✔</text>
<rect rx="6.0" ry="6.0" x="436.0" y="458.52" width="28.0" height="26.0" class="combo"/>
<text x="450.0" y="471.52" class="small">←</text>
<rect rx="6.0" ry="6.0" x="492.0" y="450.68" width="28.0" height="26.0" class="combo"/>
<text x="506.0" y="463.68" class="small">↓</text>
<rect rx="6.0" ry="6.0" x="548.0" y="435.0" width="28.0" height="26.0" class="combo"/>
<text x="562.0" y="448.0" class="small">↑</text>
<rect rx="6.0" ry="6.0" x="604.0" y="452.36" width="28.0" height="26.0" class="combo"/>
<text x="618.0" y="465.36" class="small">→</text>
<text x="30.0" y="700.0" class="label">Number:</text>
<rect rx="6.0" ry="6.0" x="32.0" y="782.08" width="52.0" height="52.0"/>
<text x="58.0" y="808.08">
<tspan x="58.0" dy="-0.6em">Screen</tspan><tspan x="58.0" dy="1.2em">Shot</tspan></text>
<rect rx="6.0" ry="6.0" x="88.0" y="747.36" width="52.0" height="52.0"/>
<text x="114.0" y="773.36">6</text>
<text x="114.0" y="792.36" class="small">⌘6</text>
<rect rx="6.0" ry="6.0" x="144.0" y="730.0" width="52.0" height="52.0"/>
<text x="170.0" y="756.0">5</text>
<text x="170.0" y="775.0" class="small">⌘5</text>
<rect rx="6.0" ry="6.0" x="200.0" y="745.68" width="52.0" height="52.0"/>
<text x="226.0" y="771.68">4</text>
<text x="226.0" y="790.68" class="small">⌘4</text>
<rect rx="6.0" ry="6.0" x="256.0" y="753.52" width="52.0" height="52.0"/>
<text x="282.0" y="779.52">
<tspan x="282.0" dy="-0.6em">Bright</tspan><tspan x="282.0" dy="1.2em">Up</tspan></text>
<rect rx="6.0" ry="6.0" x="424.0" y="753.52" width="52.0" height="52.0"/>
<text x="450.0" y="779.52">Mute</text>
<rect rx="6.0" ry="6.0" x="480.0" y="745.68" width="52.0" height="52.0"/>
<text x="506.0" y="771.68">Prev</text>
<rect rx="6.0" ry="6.0" x="536.0" y="730.0" width="52.0" height="52.0"/>
<text x="562.0" y="756.0">
<tspan x="562.0" dy="-0.6em">Play</tspan><tspan x="562.0" dy="1.2em">Pause</tspan></text>
<rect rx="6.0" ry="6.0" x="592.0" y="747.36" width="52.0" height="52.0"/>
<text x="618.0" y="773.36">Next</text>
<rect rx="6.0" ry="6.0" x="648.0" y="782.08" width="52.0" height="52.0"/>
<text x="674.0" y="808.08">&#x27;</text>
<text x="674.0" y="827.08" class="small">⎋</text>
<rect rx="6.0" ry="6.0" x="32.0" y="838.0799999999999" width="52.0" height="52.0"/>
<text x="58.0" y="864.0799999999999">
<tspan x="58.0" dy="-0.6em">Switch</tspan><tspan x="58.0" dy="1.2em">Lang</tspan></text>
<rect rx="6.0" ry="6.0" x="88.0" y="803.36" width="52.0" height="52.0"/>
<text x="114.0" y="829.36">3</text>
<text x="114.0" y="848.36" class="small">⌘3</text>
<rect rx="6.0" ry="6.0" x="144.0" y="786.0" width="52.0" height="52.0"/>
<text x="170.0" y="812.0">2</text>
<text x="170.0" y="831.0" class="small">⌘2</text>
<rect rx="6.0" ry="6.0" x="200.0" y="801.6800000000001" width="52.0" height="52.0"/>
<text x="226.0" y="827.6800000000001">1</text>
<text x="226.0" y="846.6800000000001" class="small">⌘1</text>
<rect rx="6.0" ry="6.0" x="256.0" y="809.52" width="52.0" height="52.0"/>
<text x="282.0" y="835.52">0</text>
<text x="282.0" y="854.52" class="small">⌘0</text>
<rect rx="6.0" ry="6.0" x="424.0" y="809.52" width="52.0" height="52.0"/>
<text x="450.0" y="835.52">
<tspan x="450.0" dy="-0.6em">Volume</tspan><tspan x="450.0" dy="1.2em">Up</tspan></text>
<rect rx="6.0" ry="6.0" x="480.0" y="801.6800000000001" width="52.0" height="52.0"/>
<text x="506.0" y="827.6800000000001">←</text>
<text x="506.0" y="846.6800000000001" class="small">⌘←</text>
<rect rx="6.0" ry="6.0" x="536.0" y="786.0" width="52.0" height="52.0"/>
<text x="562.0" y="812.0">↓</text>
<text x="562.0" y="831.0" class="small">⌘↓</text>
<rect rx="6.0" ry="6.0" x="592.0" y="803.36" width="52.0" height="52.0"/>
<text x="618.0" y="829.36">↑</text>
<text x="618.0" y="848.36" class="small">⌘↑</text>
<rect rx="6.0" ry="6.0" x="648.0" y="838.0799999999999" width="52.0" height="52.0"/>
<text x="674.0" y="864.0799999999999">→</text>
<text x="674.0" y="883.0799999999999" class="small">⌘→</text>
<rect rx="6.0" ry="6.0" x="32.0" y="894.08" width="52.0" height="52.0"/>
<text x="58.0" y="920.08">
<tspan x="58.0" dy="-0.6em">Lock</tspan><tspan x="58.0" dy="1.2em">Screen</tspan></text>
<rect rx="6.0" ry="6.0" x="88.0" y="859.36" width="52.0" height="52.0"/>
<text x="114.0" y="885.36">9</text>
<text x="114.0" y="904.36" class="small">⌘9</text>
<rect rx="6.0" ry="6.0" x="144.0" y="842.0" width="52.0" height="52.0"/>
<text x="170.0" y="868.0">8</text>
<text x="170.0" y="887.0" class="small">⌘8</text>
<rect rx="6.0" ry="6.0" x="200.0" y="857.68" width="52.0" height="52.0"/>
<text x="226.0" y="883.68">7</text>
<text x="226.0" y="902.68" class="small">⌘7</text>
<rect rx="6.0" ry="6.0" x="256.0" y="865.52" width="52.0" height="52.0"/>
<text x="282.0" y="891.52">
<tspan x="282.0" dy="-0.6em">Bright</tspan><tspan x="282.0" dy="1.2em">Down</tspan></text>
<rect rx="6.0" ry="6.0" x="424.0" y="865.52" width="52.0" height="52.0"/>
<text x="450.0" y="891.52">
<tspan x="450.0" dy="-0.6em">Volume</tspan><tspan x="450.0" dy="1.2em">Down</tspan></text>
<rect rx="6.0" ry="6.0" x="480.0" y="857.68" width="52.0" height="52.0"/>
<text x="506.0" y="883.68">
<tspan x="506.0" dy="-0.6em">Zoom</tspan><tspan x="506.0" dy="1.2em">In/Out</tspan></text>
<rect rx="6.0" ry="6.0" x="536.0" y="842.0" width="52.0" height="52.0"/>
<text x="562.0" y="868.0">.</text>
<rect rx="6.0" ry="6.0" x="592.0" y="859.36" width="52.0" height="52.0"/>
<text x="618.0" y="885.36">,</text>
<text x="618.0" y="904.36" class="small">Alfred</text>
<rect rx="6.0" ry="6.0" x="648.0" y="894.08" width="52.0" height="52.0"/>
<text x="674.0" y="920.08">↵</text>
<text x="674.0" y="939.08" class="small">⌘↵</text>
<rect rx="6.0" ry="6.0" x="228.0" y="940.0" width="52.0" height="52.0"/>
<text x="254.0" y="966.0">⨧</text>
<text x="254.0" y="985.0" class="small">λ</text>
<rect rx="6.0" ry="6.0" x="284.0" y="954.0" width="52.0" height="52.0"/>
<text x="310.0" y="980.0">⌫</text>
<text x="310.0" y="999.0" class="small">⇧</text>
<rect rx="6.0" ry="6.0" x="396.0" y="954.0" width="52.0" height="52.0"/>
<text x="422.0" y="980.0">␣</text>
<text x="422.0" y="999.0" class="small">⌃</text>
<rect rx="6.0" ry="6.0" x="452.0" y="940.0" width="52.0" height="52.0"/>
<text x="478.0" y="966.0">#</text>
<text x="478.0" y="985.0" class="small">#</text>
<path d="M366.0,980.0 l-37.33333333333333,0.0"/>
<path d="M366.0,980.0 l37.33333333333333,0.0"/>
<rect rx="6.0" ry="6.0" x="352.0" y="967.0" width="28.0" height="26.0" class="combo"/>
<text x="366.0" y="980.0" class="small">⌫Word</text>
<text x="366.0" y="989.4" class="smaller">Hyper</text>
<rect rx="6.0" ry="6.0" x="268.0" y="960.0" width="28.0" height="26.0" class="combo"/>
<text x="282.0" y="973.0" class="small">LClk</text>
<text x="282.0" y="982.4" class="smaller">⌘LC</text>
<rect rx="6.0" ry="6.0" x="436.0" y="960.0" width="28.0" height="26.0" class="combo"/>
<text x="450.0" y="973.0" class="small">RClk</text>
<rect rx="6.0" ry="6.0" x="548.0" y="827.0" width="28.0" height="26.0" class="combo"/>
<text x="562.0" y="840.0" class="small">!</text>
<rect rx="6.0" ry="6.0" x="604.0" y="844.36" width="28.0" height="26.0" class="combo"/>
<text x="618.0" y="857.36" class="small">?</text>
<rect rx="6.0" ry="6.0" x="660.0" y="879.0799999999999" width="28.0" height="26.0" class="combo"/>
<text x="674.0" y="892.0799999999999" class="small">:</text>
<rect rx="6.0" ry="6.0" x="660.0" y="823.08" width="28.0" height="26.0" class="combo"/>
<text x="674.0" y="836.08" class="small">;</text>
<text x="30.0" y="1036.0" class="label">Function:</text>
<rect rx="6.0" ry="6.0" x="32.0" y="1118.08" width="52.0" height="52.0"/>
<text x="58.0" y="1144.08">
<tspan x="58.0" dy="-0.6em">Boot</tspan><tspan x="58.0" dy="1.2em">Load</tspan></text>
<rect rx="6.0" ry="6.0" x="88.0" y="1083.36" width="52.0" height="52.0"/>
<rect rx="6.0" ry="6.0" x="144.0" y="1066.0" width="52.0" height="52.0"/>
<rect rx="6.0" ry="6.0" x="200.0" y="1081.68" width="52.0" height="52.0"/>
<rect rx="6.0" ry="6.0" x="256.0" y="1089.52" width="52.0" height="52.0"/>
<text x="282.0" y="1115.52">Reset</text>
<rect rx="6.0" ry="6.0" x="424.0" y="1089.52" width="52.0" height="52.0"/>
<text x="450.0" y="1115.52">Reset</text>
<rect rx="6.0" ry="6.0" x="480.0" y="1081.68" width="52.0" height="52.0"/>
<rect rx="6.0" ry="6.0" x="536.0" y="1066.0" width="52.0" height="52.0"/>
<rect rx="6.0" ry="6.0" x="592.0" y="1083.36" width="52.0" height="52.0"/>
<rect rx="6.0" ry="6.0" x="648.0" y="1118.08" width="52.0" height="52.0"/>
<text x="674.0" y="1144.08">
<tspan x="674.0" dy="-0.6em">Boot</tspan><tspan x="674.0" dy="1.2em">Load</tspan></text>
<rect rx="6.0" ry="6.0" x="32.0" y="1174.08" width="52.0" height="52.0"/>
<rect rx="6.0" ry="6.0" x="88.0" y="1139.36" width="52.0" height="52.0"/>
<text x="114.0" y="1165.36">BT4</text>
<rect rx="6.0" ry="6.0" x="144.0" y="1122.0" width="52.0" height="52.0"/>
<text x="170.0" y="1148.0">BT5</text>
<rect rx="6.0" ry="6.0" x="200.0" y="1137.68" width="52.0" height="52.0"/>
<text x="226.0" y="1163.68">BT6</text>
<rect rx="6.0" ry="6.0" x="256.0" y="1145.52" width="52.0" height="52.0"/>
<text x="282.0" y="1171.52">
<tspan x="282.0" dy="-0.6em">BT</tspan><tspan x="282.0" dy="1.2em">Clear</tspan></text>
<rect rx="6.0" ry="6.0" x="424.0" y="1145.52" width="52.0" height="52.0"/>
<rect rx="6.0" ry="6.0" x="480.0" y="1137.68" width="52.0" height="52.0"/>
<rect rx="6.0" ry="6.0" x="536.0" y="1122.0" width="52.0" height="52.0"/>
<rect rx="6.0" ry="6.0" x="592.0" y="1139.36" width="52.0" height="52.0"/>
<rect rx="6.0" ry="6.0" x="648.0" y="1174.08" width="52.0" height="52.0"/>
<rect rx="6.0" ry="6.0" x="32.0" y="1230.08" width="52.0" height="52.0"/>
<rect rx="6.0" ry="6.0" x="88.0" y="1195.3600000000001" width="52.0" height="52.0"/>
<text x="114.0" y="1221.3600000000001">BT1</text>
<rect rx="6.0" ry="6.0" x="144.0" y="1178.0" width="52.0" height="52.0"/>
<text x="170.0" y="1204.0">BT2</text>
<rect rx="6.0" ry="6.0" x="200.0" y="1193.68" width="52.0" height="52.0"/>
<text x="226.0" y="1219.68">BT3</text>
<rect rx="6.0" ry="6.0" x="256.0" y="1201.52" width="52.0" height="52.0"/>
<text x="282.0" y="1227.52">
<tspan x="282.0" dy="-0.6em">BT</tspan><tspan x="282.0" dy="1.2em">Toggl</tspan></text>
<rect rx="6.0" ry="6.0" x="424.0" y="1201.52" width="52.0" height="52.0"/>
<rect rx="6.0" ry="6.0" x="480.0" y="1193.68" width="52.0" height="52.0"/>
<rect rx="6.0" ry="6.0" x="536.0" y="1178.0" width="52.0" height="52.0"/>
<rect rx="6.0" ry="6.0" x="592.0" y="1195.3600000000001" width="52.0" height="52.0"/>
<rect rx="6.0" ry="6.0" x="648.0" y="1230.08" width="52.0" height="52.0"/>
<rect rx="6.0" ry="6.0" x="228.0" y="1276.0" width="52.0" height="52.0"/>
<text x="254.0" y="1302.0">A</text>
<rect rx="6.0" ry="6.0" x="284.0" y="1290.0" width="52.0" height="52.0"/>
<rect rx="6.0" ry="6.0" x="396.0" y="1290.0" width="52.0" height="52.0"/>
<rect rx="6.0" ry="6.0" x="452.0" y="1276.0" width="52.0" height="52.0"/>
</svg>
