<svg width="732.0" height="2408.0" viewBox="0 0 732.0 2408.0" xmlns="http://www.w3.org/2000/svg">
<style>/* font and background color specifications */
svg {
    font-family: SFMono-Regular,Consolas,Liberation Mono,Menlo,monospace;
    font-size: 14px;
    font-kerning: normal;
    text-rendering: optimizeLegibility;
    fill: #24292e;
}

/* default key styling */
rect {
    fill: #f6f8fa;
    stroke: #d6d8da;
    stroke-width: 1;
}

/* color accent for held keys */
.held {
    fill: #fdd;
}

/* color accent for combo boxes */
.combo {
    fill: #cdf;
}

/* color accent for ghost (optional) keys */
.ghost {
    fill: #ddd;
}

text {
    text-anchor: middle;
    dominant-baseline: middle;
}

/* styling for layer labels */
.label {
    font-weight: bold;
    text-anchor: start;
    stroke: white;
    stroke-width: 2;
    paint-order: stroke;
}

/* styling for combo box and hold-tap hold label text */
.small {
    font-size: 11px;
}

/* styling for hold-tap hold label text in combo box */
.smaller {
    font-size: 8px;
}

/* styling for combo dendrons */
path {
    stroke-width: 1;
    stroke: gray;
    fill: none;
}
</style>
<text x="30.0" y="28.0" class="label">Alpha:</text>
<rect rx="6.0" ry="6.0" x="32.0" y="110.08000000000001" width="52.0" height="52.0"/>
<text x="58.0" y="136.08">W</text>
<rect rx="6.0" ry="6.0" x="88.0" y="75.36" width="52.0" height="52.0"/>
<text x="114.0" y="101.36">L</text>
<rect rx="6.0" ry="6.0" x="144.0" y="58.0" width="52.0" height="52.0"/>
<text x="170.0" y="84.0">Y</text>
<rect rx="6.0" ry="6.0" x="200.0" y="73.68" width="52.0" height="52.0"/>
<text x="226.0" y="99.68">P</text>
<rect rx="6.0" ry="6.0" x="256.0" y="81.52" width="52.0" height="52.0"/>
<text x="282.0" y="107.52">B</text>
<rect rx="6.0" ry="6.0" x="424.0" y="81.52" width="52.0" height="52.0"/>
<text x="450.0" y="107.52">Z</text>
<rect rx="6.0" ry="6.0" x="480.0" y="73.68" width="52.0" height="52.0"/>
<text x="506.0" y="99.68">F</text>
<rect rx="6.0" ry="6.0" x="536.0" y="58.0" width="52.0" height="52.0"/>
<text x="562.0" y="84.0">O</text>
<rect rx="6.0" ry="6.0" x="592.0" y="75.36" width="52.0" height="52.0"/>
<text x="618.0" y="101.36">U</text>
<rect rx="6.0" ry="6.0" x="648.0" y="110.08000000000001" width="52.0" height="52.0"/>
<text x="674.0" y="136.08">&#x27;</text>
<rect rx="6.0" ry="6.0" x="32.0" y="166.07999999999998" width="52.0" height="52.0"/>
<text x="58.0" y="192.07999999999998">C</text>
<rect rx="6.0" ry="6.0" x="88.0" y="131.36" width="52.0" height="52.0"/>
<text x="114.0" y="157.36">R</text>
<rect rx="6.0" ry="6.0" x="144.0" y="114.0" width="52.0" height="52.0"/>
<text x="170.0" y="140.0">S</text>
<rect rx="6.0" ry="6.0" x="200.0" y="129.68" width="52.0" height="52.0"/>
<text x="226.0" y="155.68">T</text>
<rect rx="6.0" ry="6.0" x="256.0" y="137.51999999999998" width="52.0" height="52.0"/>
<text x="282.0" y="163.51999999999998">G</text>
<rect rx="6.0" ry="6.0" x="424.0" y="137.51999999999998" width="52.0" height="52.0"/>
<text x="450.0" y="163.51999999999998">M</text>
<rect rx="6.0" ry="6.0" x="480.0" y="129.68" width="52.0" height="52.0"/>
<text x="506.0" y="155.68">N</text>
<rect rx="6.0" ry="6.0" x="536.0" y="114.0" width="52.0" height="52.0"/>
<text x="562.0" y="140.0">E</text>
<rect rx="6.0" ry="6.0" x="592.0" y="131.36" width="52.0" height="52.0"/>
<text x="618.0" y="157.36">I</text>
<rect rx="6.0" ry="6.0" x="648.0" y="166.07999999999998" width="52.0" height="52.0"/>
<text x="674.0" y="192.07999999999998">A</text>
<rect rx="6.0" ry="6.0" x="32.0" y="222.08" width="52.0" height="52.0"/>
<text x="58.0" y="248.08">Q</text>
<rect rx="6.0" ry="6.0" x="88.0" y="187.36" width="52.0" height="52.0"/>
<text x="114.0" y="213.36">J</text>
<rect rx="6.0" ry="6.0" x="144.0" y="170.0" width="52.0" height="52.0"/>
<text x="170.0" y="196.0">V</text>
<rect rx="6.0" ry="6.0" x="200.0" y="185.67999999999998" width="52.0" height="52.0"/>
<text x="226.0" y="211.67999999999998">D</text>
<rect rx="6.0" ry="6.0" x="256.0" y="193.51999999999998" width="52.0" height="52.0"/>
<text x="282.0" y="219.51999999999998">K</text>
<rect rx="6.0" ry="6.0" x="424.0" y="193.51999999999998" width="52.0" height="52.0"/>
<text x="450.0" y="219.51999999999998">X</text>
<rect rx="6.0" ry="6.0" x="480.0" y="185.67999999999998" width="52.0" height="52.0"/>
<text x="506.0" y="211.67999999999998">H</text>
<rect rx="6.0" ry="6.0" x="536.0" y="170.0" width="52.0" height="52.0"/>
<text x="562.0" y="196.0">.</text>
<rect rx="6.0" ry="6.0" x="592.0" y="187.36" width="52.0" height="52.0"/>
<text x="618.0" y="213.36">,</text>
<rect rx="6.0" ry="6.0" x="648.0" y="222.08" width="52.0" height="52.0"/>
<text x="674.0" y="248.08">↵</text>
<rect rx="6.0" ry="6.0" x="228.0" y="268.0" width="52.0" height="52.0"/>
<text x="254.0" y="294.0">⨧</text>
<rect rx="6.0" ry="6.0" x="284.0" y="282.0" width="52.0" height="52.0"/>
<text x="310.0" y="308.0">⌫</text>
<rect rx="6.0" ry="6.0" x="396.0" y="282.0" width="52.0" height="52.0"/>
<text x="422.0" y="308.0">␣</text>
<rect rx="6.0" ry="6.0" x="452.0" y="268.0" width="52.0" height="52.0"/>
<text x="478.0" y="294.0">⇥</text>
<path d="M366.0,308.0 l-37.33333333333333,0.0"/>
<path d="M366.0,308.0 l37.33333333333333,0.0"/>
<rect rx="6.0" ry="6.0" x="352.0" y="295.0" width="28.0" height="26.0" class="combo"/>
<text x="366.0" y="308.0" class="small">⌫Word</text>
<rect rx="6.0" ry="6.0" x="268.0" y="288.0" width="28.0" height="26.0" class="combo"/>
<text x="282.0" y="301.0" class="small">LClk</text>
<rect rx="6.0" ry="6.0" x="436.0" y="288.0" width="28.0" height="26.0" class="combo"/>
<text x="450.0" y="301.0" class="small">RClk</text>
<rect rx="6.0" ry="6.0" x="548.0" y="155.0" width="28.0" height="26.0" class="combo"/>
<text x="562.0" y="168.0" class="small">!</text>
<rect rx="6.0" ry="6.0" x="604.0" y="172.36" width="28.0" height="26.0" class="combo"/>
<text x="618.0" y="185.36" class="small">?</text>
<rect rx="6.0" ry="6.0" x="660.0" y="207.07999999999998" width="28.0" height="26.0" class="combo"/>
<text x="674.0" y="220.07999999999998" class="small">:</text>
<rect rx="6.0" ry="6.0" x="660.0" y="151.07999999999998" width="28.0" height="26.0" class="combo"/>
<text x="674.0" y="164.07999999999998" class="small">;</text>
<text x="30.0" y="364.0" class="label">Alpha (hold):</text>
<rect rx="6.0" ry="6.0" x="32.0" y="446.08000000000004" width="52.0" height="52.0"/>
<text x="58.0" y="472.08000000000004">⌘W</text>
<rect rx="6.0" ry="6.0" x="88.0" y="411.36" width="52.0" height="52.0"/>
<text x="114.0" y="437.36">⌘L</text>
<rect rx="6.0" ry="6.0" x="144.0" y="394.0" width="52.0" height="52.0"/>
<text x="170.0" y="420.0">⌘Y</text>
<rect rx="6.0" ry="6.0" x="200.0" y="409.68" width="52.0" height="52.0"/>
<text x="226.0" y="435.68">⌘P</text>
<rect rx="6.0" ry="6.0" x="256.0" y="417.52" width="52.0" height="52.0"/>
<text x="282.0" y="443.52">⌘B</text>
<rect rx="6.0" ry="6.0" x="424.0" y="417.52" width="52.0" height="52.0"/>
<text x="450.0" y="443.52">⌘Z</text>
<rect rx="6.0" ry="6.0" x="480.0" y="409.68" width="52.0" height="52.0"/>
<text x="506.0" y="435.68">⌘F</text>
<rect rx="6.0" ry="6.0" x="536.0" y="394.0" width="52.0" height="52.0"/>
<text x="562.0" y="420.0">⌘O</text>
<rect rx="6.0" ry="6.0" x="592.0" y="411.36" width="52.0" height="52.0"/>
<text x="618.0" y="437.36">⌘U</text>
<rect rx="6.0" ry="6.0" x="648.0" y="446.08000000000004" width="52.0" height="52.0"/>
<text x="674.0" y="472.08000000000004">⎋</text>
<rect rx="6.0" ry="6.0" x="32.0" y="502.0799999999999" width="52.0" height="52.0"/>
<text x="58.0" y="528.0799999999999">⌘C</text>
<rect rx="6.0" ry="6.0" x="88.0" y="467.36" width="52.0" height="52.0"/>
<text x="114.0" y="493.36">⌘R</text>
<rect rx="6.0" ry="6.0" x="144.0" y="450.0" width="52.0" height="52.0"/>
<text x="170.0" y="476.0">⌘S</text>
<rect rx="6.0" ry="6.0" x="200.0" y="465.68" width="52.0" height="52.0"/>
<text x="226.0" y="491.68">⌘T</text>
<rect rx="6.0" ry="6.0" x="256.0" y="473.52" width="52.0" height="52.0"/>
<text x="282.0" y="499.52">⌘G</text>
<rect rx="6.0" ry="6.0" x="424.0" y="473.52" width="52.0" height="52.0"/>
<text x="450.0" y="499.52">⌘M</text>
<rect rx="6.0" ry="6.0" x="480.0" y="465.68" width="52.0" height="52.0"/>
<text x="506.0" y="491.68">⌘N</text>
<rect rx="6.0" ry="6.0" x="536.0" y="450.0" width="52.0" height="52.0"/>
<text x="562.0" y="476.0">⌘E</text>
<rect rx="6.0" ry="6.0" x="592.0" y="467.36" width="52.0" height="52.0"/>
<text x="618.0" y="493.36">⌘I</text>
<rect rx="6.0" ry="6.0" x="648.0" y="502.0799999999999" width="52.0" height="52.0"/>
<text x="674.0" y="528.0799999999999">⌘A</text>
<rect rx="6.0" ry="6.0" x="32.0" y="558.08" width="52.0" height="52.0"/>
<text x="58.0" y="584.08">⌘Q</text>
<rect rx="6.0" ry="6.0" x="88.0" y="523.36" width="52.0" height="52.0"/>
<text x="114.0" y="549.36">⌘J</text>
<rect rx="6.0" ry="6.0" x="144.0" y="506.0" width="52.0" height="52.0"/>
<text x="170.0" y="532.0">⌘V</text>
<rect rx="6.0" ry="6.0" x="200.0" y="521.68" width="52.0" height="52.0"/>
<text x="226.0" y="547.68">⌘D</text>
<rect rx="6.0" ry="6.0" x="256.0" y="529.52" width="52.0" height="52.0"/>
<text x="282.0" y="555.52">⌘K</text>
<rect rx="6.0" ry="6.0" x="424.0" y="529.52" width="52.0" height="52.0"/>
<text x="450.0" y="555.52">⌘X</text>
<rect rx="6.0" ry="6.0" x="480.0" y="521.68" width="52.0" height="52.0"/>
<text x="506.0" y="547.68">⌘H</text>
<rect rx="6.0" ry="6.0" x="536.0" y="506.0" width="52.0" height="52.0"/>
<rect rx="6.0" ry="6.0" x="592.0" y="523.36" width="52.0" height="52.0"/>
<text x="618.0" y="549.36">Alfred</text>
<rect rx="6.0" ry="6.0" x="648.0" y="558.08" width="52.0" height="52.0"/>
<text x="674.0" y="584.08">⌘↵</text>
<rect rx="6.0" ry="6.0" x="228.0" y="604.0" width="52.0" height="52.0"/>
<text x="254.0" y="630.0">λ</text>
<rect rx="6.0" ry="6.0" x="284.0" y="618.0" width="52.0" height="52.0"/>
<text x="310.0" y="644.0">⇧</text>
<rect rx="6.0" ry="6.0" x="396.0" y="618.0" width="52.0" height="52.0"/>
<text x="422.0" y="644.0">⌃</text>
<rect rx="6.0" ry="6.0" x="452.0" y="604.0" width="52.0" height="52.0"/>
<text x="478.0" y="630.0">#</text>
<path d="M366.0,644.0 l-37.33333333333333,0.0"/>
<path d="M366.0,644.0 l37.33333333333333,0.0"/>
<rect rx="6.0" ry="6.0" x="352.0" y="631.0" width="28.0" height="26.0" class="combo"/>
<text x="366.0" y="644.0" class="small">Hyper</text>
<rect rx="6.0" ry="6.0" x="268.0" y="624.0" width="28.0" height="26.0" class="combo"/>
<text x="282.0" y="637.0" class="small">⌘LC</text>
<text x="30.0" y="700.0" class="label">Symbol:</text>
<rect rx="6.0" ry="6.0" x="32.0" y="782.08" width="52.0" height="52.0"/>
<text x="58.0" y="808.08">`</text>
<rect rx="6.0" ry="6.0" x="88.0" y="747.36" width="52.0" height="52.0"/>
<text x="114.0" y="773.36">~</text>
<rect rx="6.0" ry="6.0" x="144.0" y="730.0" width="52.0" height="52.0"/>
<text x="170.0" y="756.0">\</text>
<rect rx="6.0" ry="6.0" x="200.0" y="745.68" width="52.0" height="52.0"/>
<text x="226.0" y="771.68">{</text>
<rect rx="6.0" ry="6.0" x="256.0" y="753.52" width="52.0" height="52.0"/>
<text x="282.0" y="779.52">$</text>
<rect rx="6.0" ry="6.0" x="424.0" y="753.52" width="52.0" height="52.0"/>
<text x="450.0" y="779.52">%</text>
<rect rx="6.0" ry="6.0" x="480.0" y="745.68" width="52.0" height="52.0"/>
<text x="506.0" y="771.68">}</text>
<rect rx="6.0" ry="6.0" x="536.0" y="730.0" width="52.0" height="52.0"/>
<text x="562.0" y="756.0">/</text>
<rect rx="6.0" ry="6.0" x="592.0" y="747.36" width="52.0" height="52.0"/>
<text x="618.0" y="773.36">#</text>
<rect rx="6.0" ry="6.0" x="648.0" y="782.08" width="52.0" height="52.0"/>
<text x="674.0" y="808.08">&#x27;</text>
<rect rx="6.0" ry="6.0" x="32.0" y="838.0799999999999" width="52.0" height="52.0"/>
<text x="58.0" y="864.0799999999999">&amp;</text>
<rect rx="6.0" ry="6.0" x="88.0" y="803.36" width="52.0" height="52.0"/>
<text x="114.0" y="829.36">*</text>
<rect rx="6.0" ry="6.0" x="144.0" y="786.0" width="52.0" height="52.0"/>
<text x="170.0" y="812.0">=</text>
<rect rx="6.0" ry="6.0" x="200.0" y="801.6800000000001" width="52.0" height="52.0"/>
<text x="226.0" y="827.6800000000001">(</text>
<rect rx="6.0" ry="6.0" x="256.0" y="809.52" width="52.0" height="52.0"/>
<text x="282.0" y="835.52">&lt;</text>
<rect rx="6.0" ry="6.0" x="424.0" y="809.52" width="52.0" height="52.0"/>
<text x="450.0" y="835.52">&gt;</text>
<rect rx="6.0" ry="6.0" x="480.0" y="801.6800000000001" width="52.0" height="52.0"/>
<text x="506.0" y="827.6800000000001">)</text>
<rect rx="6.0" ry="6.0" x="536.0" y="786.0" width="52.0" height="52.0"/>
<text x="562.0" y="812.0">-</text>
<rect rx="6.0" ry="6.0" x="592.0" y="803.36" width="52.0" height="52.0"/>
<text x="618.0" y="829.36">+</text>
<rect rx="6.0" ry="6.0" x="648.0" y="838.0799999999999" width="52.0" height="52.0"/>
<text x="674.0" y="864.0799999999999">|</text>
<rect rx="6.0" ry="6.0" x="32.0" y="894.08" width="52.0" height="52.0"/>
<text x="58.0" y="920.08">—</text>
<rect rx="6.0" ry="6.0" x="88.0" y="859.36" width="52.0" height="52.0"/>
<text x="114.0" y="885.36">@</text>
<rect rx="6.0" ry="6.0" x="144.0" y="842.0" width="52.0" height="52.0"/>
<text x="170.0" y="868.0">_</text>
<rect rx="6.0" ry="6.0" x="200.0" y="857.68" width="52.0" height="52.0"/>
<text x="226.0" y="883.68">[</text>
<rect rx="6.0" ry="6.0" x="256.0" y="865.52" width="52.0" height="52.0"/>
<text x="282.0" y="891.52">…</text>
<rect rx="6.0" ry="6.0" x="424.0" y="865.52" width="52.0" height="52.0"/>
<text x="450.0" y="891.52">^</text>
<rect rx="6.0" ry="6.0" x="480.0" y="857.68" width="52.0" height="52.0"/>
<text x="506.0" y="883.68">]</text>
<rect rx="6.0" ry="6.0" x="536.0" y="842.0" width="52.0" height="52.0"/>
<text x="562.0" y="868.0">.</text>
<rect rx="6.0" ry="6.0" x="592.0" y="859.36" width="52.0" height="52.0"/>
<text x="618.0" y="885.36">,</text>
<rect rx="6.0" ry="6.0" x="648.0" y="894.08" width="52.0" height="52.0"/>
<text x="674.0" y="920.08">↵</text>
<rect rx="6.0" ry="6.0" x="228.0" y="940.0" width="52.0" height="52.0"/>
<text x="254.0" y="966.0">λ</text>
<rect rx="6.0" ry="6.0" x="284.0" y="954.0" width="52.0" height="52.0"/>
<text x="310.0" y="980.0">⌫</text>
<rect rx="6.0" ry="6.0" x="396.0" y="954.0" width="52.0" height="52.0"/>
<text x="422.0" y="980.0">␣</text>
<rect rx="6.0" ry="6.0" x="452.0" y="940.0" width="52.0" height="52.0"/>
<text x="478.0" y="966.0">⇥</text>
<path d="M366.0,980.0 l-37.33333333333333,0.0"/>
<path d="M366.0,980.0 l37.33333333333333,0.0"/>
<rect rx="6.0" ry="6.0" x="352.0" y="967.0" width="28.0" height="26.0" class="combo"/>
<text x="366.0" y="980.0" class="small">⌫Word</text>
<rect rx="6.0" ry="6.0" x="268.0" y="960.0" width="28.0" height="26.0" class="combo"/>
<text x="282.0" y="973.0" class="small">LClk</text>
<rect rx="6.0" ry="6.0" x="436.0" y="960.0" width="28.0" height="26.0" class="combo"/>
<text x="450.0" y="973.0" class="small">RClk</text>
<rect rx="6.0" ry="6.0" x="548.0" y="827.0" width="28.0" height="26.0" class="combo"/>
<text x="562.0" y="840.0" class="small">!</text>
<rect rx="6.0" ry="6.0" x="604.0" y="844.36" width="28.0" height="26.0" class="combo"/>
<text x="618.0" y="857.36" class="small">?</text>
<rect rx="6.0" ry="6.0" x="660.0" y="879.0799999999999" width="28.0" height="26.0" class="combo"/>
<text x="674.0" y="892.0799999999999" class="small">:</text>
<rect rx="6.0" ry="6.0" x="660.0" y="823.08" width="28.0" height="26.0" class="combo"/>
<text x="674.0" y="836.08" class="small">;</text>
<rect rx="6.0" ry="6.0" x="44.0" y="879.0799999999999" width="28.0" height="26.0" class="combo"/>
<text x="58.0" y="892.0799999999999" class="small">¢</text>
<rect rx="6.0" ry="6.0" x="100.0" y="844.36" width="28.0" height="26.0" class="combo"/>
<text x="114.0" y="857.36" class="small">£</text>
<rect rx="6.0" ry="6.0" x="156.0" y="827.0" width="28.0" height="26.0" class="combo"/>
<text x="170.0" y="840.0" class="small">¥</text>
<rect rx="6.0" ry="6.0" x="212.0" y="842.68" width="28.0" height="26.0" class="combo"/>
<text x="226.0" y="855.68" class="small">€</text>
<rect rx="6.0" ry="6.0" x="268.0" y="850.52" width="28.0" height="26.0" class="combo"/>
<text x="282.0" y="863.52" class="small">⋯</text>
<rect rx="6.0" ry="6.0" x="212.0" y="786.6800000000001" width="28.0" height="26.0" class="combo"/>
<text x="226.0" y="799.6800000000001" class="small">•</text>
<rect rx="6.0" ry="6.0" x="156.0" y="771.0" width="28.0" height="26.0" class="combo"/>
<text x="170.0" y="784.0" class="small">°</text>
<rect rx="6.0" ry="6.0" x="44.0" y="823.08" width="28.0" height="26.0" class="combo"/>
<text x="58.0" y="836.08" class="small">∞</text>
<rect rx="6.0" ry="6.0" x="100.0" y="788.36" width="28.0" height="26.0" class="combo"/>
<text x="114.0" y="801.36" class="small">λ</text>
<rect rx="6.0" ry="6.0" x="268.0" y="794.52" width="28.0" height="26.0" class="combo"/>
<text x="282.0" y="807.52" class="small">⌘</text>
<rect rx="6.0" ry="6.0" x="436.0" y="850.52" width="28.0" height="26.0" class="combo"/>
<text x="450.0" y="863.52" class="small">✗</text>
<rect rx="6.0" ry="6.0" x="492.0" y="842.68" width="28.0" height="26.0" class="combo"/>
<text x="506.0" y="855.68" class="small">✔</text>
<rect rx="6.0" ry="6.0" x="436.0" y="794.52" width="28.0" height="26.0" class="combo"/>
<text x="450.0" y="807.52" class="small">←</text>
<rect rx="6.0" ry="6.0" x="492.0" y="786.6800000000001" width="28.0" height="26.0" class="combo"/>
<text x="506.0" y="799.6800000000001" class="small">↓</text>
<rect rx="6.0" ry="6.0" x="548.0" y="771.0" width="28.0" height="26.0" class="combo"/>
<text x="562.0" y="784.0" class="small">↑</text>
<rect rx="6.0" ry="6.0" x="604.0" y="788.36" width="28.0" height="26.0" class="combo"/>
<text x="618.0" y="801.36" class="small">→</text>
<text x="30.0" y="1036.0" class="label">Symbol (hold):</text>
<rect rx="6.0" ry="6.0" x="32.0" y="1118.08" width="52.0" height="52.0"/>
<text x="58.0" y="1144.08">⌘`</text>
<rect rx="6.0" ry="6.0" x="88.0" y="1083.36" width="52.0" height="52.0"/>
<text x="114.0" y="1109.36">⌘~</text>
<rect rx="6.0" ry="6.0" x="144.0" y="1066.0" width="52.0" height="52.0"/>
<text x="170.0" y="1092.0">⌘\</text>
<rect rx="6.0" ry="6.0" x="200.0" y="1081.68" width="52.0" height="52.0"/>
<text x="226.0" y="1107.68">⌘{</text>
<rect rx="6.0" ry="6.0" x="256.0" y="1089.52" width="52.0" height="52.0"/>
<text x="282.0" y="1115.52">⌘$</text>
<rect rx="6.0" ry="6.0" x="424.0" y="1089.52" width="52.0" height="52.0"/>
<text x="450.0" y="1115.52">⌘%</text>
<rect rx="6.0" ry="6.0" x="480.0" y="1081.68" width="52.0" height="52.0"/>
<text x="506.0" y="1107.68">⌘}</text>
<rect rx="6.0" ry="6.0" x="536.0" y="1066.0" width="52.0" height="52.0"/>
<text x="562.0" y="1092.0">⌘/</text>
<rect rx="6.0" ry="6.0" x="592.0" y="1083.36" width="52.0" height="52.0"/>
<text x="618.0" y="1109.36">⌘#</text>
<rect rx="6.0" ry="6.0" x="648.0" y="1118.08" width="52.0" height="52.0"/>
<text x="674.0" y="1144.08">⎋</text>
<rect rx="6.0" ry="6.0" x="32.0" y="1174.08" width="52.0" height="52.0"/>
<text x="58.0" y="1200.08">⌘&amp;</text>
<rect rx="6.0" ry="6.0" x="88.0" y="1139.36" width="52.0" height="52.0"/>
<text x="114.0" y="1165.36">⌘*</text>
<rect rx="6.0" ry="6.0" x="144.0" y="1122.0" width="52.0" height="52.0"/>
<text x="170.0" y="1148.0">⌘=</text>
<rect rx="6.0" ry="6.0" x="200.0" y="1137.68" width="52.0" height="52.0"/>
<text x="226.0" y="1163.68">⌘(</text>
<rect rx="6.0" ry="6.0" x="256.0" y="1145.52" width="52.0" height="52.0"/>
<text x="282.0" y="1171.52">⌘&lt;</text>
<rect rx="6.0" ry="6.0" x="424.0" y="1145.52" width="52.0" height="52.0"/>
<text x="450.0" y="1171.52">⌘&gt;</text>
<rect rx="6.0" ry="6.0" x="480.0" y="1137.68" width="52.0" height="52.0"/>
<text x="506.0" y="1163.68">⌘)</text>
<rect rx="6.0" ry="6.0" x="536.0" y="1122.0" width="52.0" height="52.0"/>
<text x="562.0" y="1148.0">⌘-</text>
<rect rx="6.0" ry="6.0" x="592.0" y="1139.36" width="52.0" height="52.0"/>
<text x="618.0" y="1165.36">⌘+</text>
<rect rx="6.0" ry="6.0" x="648.0" y="1174.08" width="52.0" height="52.0"/>
<text x="674.0" y="1200.08">⌘|</text>
<rect rx="6.0" ry="6.0" x="32.0" y="1230.08" width="52.0" height="52.0"/>
<text x="58.0" y="1256.08">⌘—</text>
<rect rx="6.0" ry="6.0" x="88.0" y="1195.3600000000001" width="52.0" height="52.0"/>
<text x="114.0" y="1221.3600000000001">⌘@</text>
<rect rx="6.0" ry="6.0" x="144.0" y="1178.0" width="52.0" height="52.0"/>
<text x="170.0" y="1204.0">⌘_</text>
<rect rx="6.0" ry="6.0" x="200.0" y="1193.68" width="52.0" height="52.0"/>
<text x="226.0" y="1219.68">⌘[</text>
<rect rx="6.0" ry="6.0" x="256.0" y="1201.52" width="52.0" height="52.0"/>
<text x="282.0" y="1227.52">⌘…</text>
<rect rx="6.0" ry="6.0" x="424.0" y="1201.52" width="52.0" height="52.0"/>
<text x="450.0" y="1227.52">⌘^</text>
<rect rx="6.0" ry="6.0" x="480.0" y="1193.68" width="52.0" height="52.0"/>
<text x="506.0" y="1219.68">⌘]</text>
<rect rx="6.0" ry="6.0" x="536.0" y="1178.0" width="52.0" height="52.0"/>
<rect rx="6.0" ry="6.0" x="592.0" y="1195.3600000000001" width="52.0" height="52.0"/>
<text x="618.0" y="1221.3600000000001">Alfred</text>
<rect rx="6.0" ry="6.0" x="648.0" y="1230.08" width="52.0" height="52.0"/>
<text x="674.0" y="1256.08">⌘↵</text>
<rect rx="6.0" ry="6.0" x="228.0" y="1276.0" width="52.0" height="52.0"/>
<text x="254.0" y="1302.0">λ</text>
<rect rx="6.0" ry="6.0" x="284.0" y="1290.0" width="52.0" height="52.0"/>
<text x="310.0" y="1316.0">⇧</text>
<rect rx="6.0" ry="6.0" x="396.0" y="1290.0" width="52.0" height="52.0"/>
<text x="422.0" y="1316.0">⌃</text>
<rect rx="6.0" ry="6.0" x="452.0" y="1276.0" width="52.0" height="52.0"/>
<text x="478.0" y="1302.0">#</text>
<path d="M366.0,1316.0 l-37.33333333333333,0.0"/>
<path d="M366.0,1316.0 l37.33333333333333,0.0"/>
<rect rx="6.0" ry="6.0" x="352.0" y="1303.0" width="28.0" height="26.0" class="combo"/>
<text x="366.0" y="1316.0" class="small">Hyper</text>
<rect rx="6.0" ry="6.0" x="268.0" y="1296.0" width="28.0" height="26.0" class="combo"/>
<text x="282.0" y="1309.0" class="small">⌘LC</text>
<text x="30.0" y="1372.0" class="label">Number:</text>
<rect rx="6.0" ry="6.0" x="32.0" y="1454.08" width="52.0" height="52.0"/>
<text x="58.0" y="1480.08">
<tspan x="58.0" dy="-0.6em">Screen</tspan><tspan x="58.0" dy="1.2em">Shot</tspan></text>
<rect rx="6.0" ry="6.0" x="88.0" y="1419.36" width="52.0" height="52.0"/>
<text x="114.0" y="1445.36">6</text>
<rect rx="6.0" ry="6.0" x="144.0" y="1402.0" width="52.0" height="52.0"/>
<text x="170.0" y="1428.0">5</text>
<rect rx="6.0" ry="6.0" x="200.0" y="1417.68" width="52.0" height="52.0"/>
<text x="226.0" y="1443.68">4</text>
<rect rx="6.0" ry="6.0" x="256.0" y="1425.52" width="52.0" height="52.0"/>
<text x="282.0" y="1451.52">
<tspan x="282.0" dy="-0.6em">Bright</tspan><tspan x="282.0" dy="1.2em">Up</tspan></text>
<rect rx="6.0" ry="6.0" x="424.0" y="1425.52" width="52.0" height="52.0"/>
<text x="450.0" y="1451.52">Mute</text>
<rect rx="6.0" ry="6.0" x="480.0" y="1417.68" width="52.0" height="52.0"/>
<text x="506.0" y="1443.68">Prev</text>
<rect rx="6.0" ry="6.0" x="536.0" y="1402.0" width="52.0" height="52.0"/>
<text x="562.0" y="1428.0">
<tspan x="562.0" dy="-0.6em">Play</tspan><tspan x="562.0" dy="1.2em">Pause</tspan></text>
<rect rx="6.0" ry="6.0" x="592.0" y="1419.36" width="52.0" height="52.0"/>
<text x="618.0" y="1445.36">Next</text>
<rect rx="6.0" ry="6.0" x="648.0" y="1454.08" width="52.0" height="52.0"/>
<text x="674.0" y="1480.08">&#x27;</text>
<rect rx="6.0" ry="6.0" x="32.0" y="1510.08" width="52.0" height="52.0"/>
<text x="58.0" y="1536.08">
<tspan x="58.0" dy="-0.6em">Switch</tspan><tspan x="58.0" dy="1.2em">Lang</tspan></text>
<rect rx="6.0" ry="6.0" x="88.0" y="1475.36" width="52.0" height="52.0"/>
<text x="114.0" y="1501.36">3</text>
<rect rx="6.0" ry="6.0" x="144.0" y="1458.0" width="52.0" height="52.0"/>
<text x="170.0" y="1484.0">2</text>
<rect rx="6.0" ry="6.0" x="200.0" y="1473.68" width="52.0" height="52.0"/>
<text x="226.0" y="1499.68">1</text>
<rect rx="6.0" ry="6.0" x="256.0" y="1481.52" width="52.0" height="52.0"/>
<text x="282.0" y="1507.52">0</text>
<rect rx="6.0" ry="6.0" x="424.0" y="1481.52" width="52.0" height="52.0"/>
<text x="450.0" y="1507.52">
<tspan x="450.0" dy="-0.6em">Volume</tspan><tspan x="450.0" dy="1.2em">Up</tspan></text>
<rect rx="6.0" ry="6.0" x="480.0" y="1473.68" width="52.0" height="52.0"/>
<text x="506.0" y="1499.68">←</text>
<rect rx="6.0" ry="6.0" x="536.0" y="1458.0" width="52.0" height="52.0"/>
<text x="562.0" y="1484.0">↓</text>
<rect rx="6.0" ry="6.0" x="592.0" y="1475.36" width="52.0" height="52.0"/>
<text x="618.0" y="1501.36">↑</text>
<rect rx="6.0" ry="6.0" x="648.0" y="1510.08" width="52.0" height="52.0"/>
<text x="674.0" y="1536.08">→</text>
<rect rx="6.0" ry="6.0" x="32.0" y="1566.08" width="52.0" height="52.0"/>
<text x="58.0" y="1592.08">
<tspan x="58.0" dy="-0.6em">Lock</tspan><tspan x="58.0" dy="1.2em">Screen</tspan></text>
<rect rx="6.0" ry="6.0" x="88.0" y="1531.3600000000001" width="52.0" height="52.0"/>
<text x="114.0" y="1557.3600000000001">9</text>
<rect rx="6.0" ry="6.0" x="144.0" y="1514.0" width="52.0" height="52.0"/>
<text x="170.0" y="1540.0">8</text>
<rect rx="6.0" ry="6.0" x="200.0" y="1529.68" width="52.0" height="52.0"/>
<text x="226.0" y="1555.68">7</text>
<rect rx="6.0" ry="6.0" x="256.0" y="1537.52" width="52.0" height="52.0"/>
<text x="282.0" y="1563.52">
<tspan x="282.0" dy="-0.6em">Bright</tspan><tspan x="282.0" dy="1.2em">Down</tspan></text>
<rect rx="6.0" ry="6.0" x="424.0" y="1537.52" width="52.0" height="52.0"/>
<text x="450.0" y="1563.52">
<tspan x="450.0" dy="-0.6em">Volume</tspan><tspan x="450.0" dy="1.2em">Down</tspan></text>
<rect rx="6.0" ry="6.0" x="480.0" y="1529.68" width="52.0" height="52.0"/>
<text x="506.0" y="1555.68">
<tspan x="506.0" dy="-0.6em">Zoom</tspan><tspan x="506.0" dy="1.2em">In/Out</tspan></text>
<rect rx="6.0" ry="6.0" x="536.0" y="1514.0" width="52.0" height="52.0"/>
<text x="562.0" y="1540.0">.</text>
<rect rx="6.0" ry="6.0" x="592.0" y="1531.3600000000001" width="52.0" height="52.0"/>
<text x="618.0" y="1557.3600000000001">,</text>
<rect rx="6.0" ry="6.0" x="648.0" y="1566.08" width="52.0" height="52.0"/>
<text x="674.0" y="1592.08">↵</text>
<rect rx="6.0" ry="6.0" x="228.0" y="1612.0" width="52.0" height="52.0"/>
<text x="254.0" y="1638.0">⨧</text>
<rect rx="6.0" ry="6.0" x="284.0" y="1626.0" width="52.0" height="52.0"/>
<text x="310.0" y="1652.0">⌫</text>
<rect rx="6.0" ry="6.0" x="396.0" y="1626.0" width="52.0" height="52.0"/>
<text x="422.0" y="1652.0">␣</text>
<rect rx="6.0" ry="6.0" x="452.0" y="1612.0" width="52.0" height="52.0"/>
<text x="478.0" y="1638.0">#</text>
<path d="M366.0,1652.0 l-37.33333333333333,0.0"/>
<path d="M366.0,1652.0 l37.33333333333333,0.0"/>
<rect rx="6.0" ry="6.0" x="352.0" y="1639.0" width="28.0" height="26.0" class="combo"/>
<text x="366.0" y="1652.0" class="small">⌫Word</text>
<rect rx="6.0" ry="6.0" x="268.0" y="1632.0" width="28.0" height="26.0" class="combo"/>
<text x="282.0" y="1645.0" class="small">LClk</text>
<rect rx="6.0" ry="6.0" x="436.0" y="1632.0" width="28.0" height="26.0" class="combo"/>
<text x="450.0" y="1645.0" class="small">RClk</text>
<rect rx="6.0" ry="6.0" x="548.0" y="1499.0" width="28.0" height="26.0" class="combo"/>
<text x="562.0" y="1512.0" class="small">!</text>
<rect rx="6.0" ry="6.0" x="604.0" y="1516.3600000000001" width="28.0" height="26.0" class="combo"/>
<text x="618.0" y="1529.3600000000001" class="small">?</text>
<rect rx="6.0" ry="6.0" x="660.0" y="1551.08" width="28.0" height="26.0" class="combo"/>
<text x="674.0" y="1564.08" class="small">:</text>
<rect rx="6.0" ry="6.0" x="660.0" y="1495.08" width="28.0" height="26.0" class="combo"/>
<text x="674.0" y="1508.08" class="small">;</text>
<text x="30.0" y="1708.0" class="label">Number (hold):</text>
<rect rx="6.0" ry="6.0" x="32.0" y="1790.08" width="52.0" height="52.0"/>
<rect rx="6.0" ry="6.0" x="88.0" y="1755.36" width="52.0" height="52.0"/>
<text x="114.0" y="1781.36">⌘6</text>
<rect rx="6.0" ry="6.0" x="144.0" y="1738.0" width="52.0" height="52.0"/>
<text x="170.0" y="1764.0">⌘5</text>
<rect rx="6.0" ry="6.0" x="200.0" y="1753.68" width="52.0" height="52.0"/>
<text x="226.0" y="1779.68">⌘4</text>
<rect rx="6.0" ry="6.0" x="256.0" y="1761.52" width="52.0" height="52.0"/>
<rect rx="6.0" ry="6.0" x="424.0" y="1761.52" width="52.0" height="52.0"/>
<rect rx="6.0" ry="6.0" x="480.0" y="1753.68" width="52.0" height="52.0"/>
<rect rx="6.0" ry="6.0" x="536.0" y="1738.0" width="52.0" height="52.0"/>
<rect rx="6.0" ry="6.0" x="592.0" y="1755.36" width="52.0" height="52.0"/>
<rect rx="6.0" ry="6.0" x="648.0" y="1790.08" width="52.0" height="52.0"/>
<text x="674.0" y="1816.08">⎋</text>
<rect rx="6.0" ry="6.0" x="32.0" y="1846.08" width="52.0" height="52.0"/>
<rect rx="6.0" ry="6.0" x="88.0" y="1811.36" width="52.0" height="52.0"/>
<text x="114.0" y="1837.36">⌘3</text>
<rect rx="6.0" ry="6.0" x="144.0" y="1794.0" width="52.0" height="52.0"/>
<text x="170.0" y="1820.0">⌘2</text>
<rect rx="6.0" ry="6.0" x="200.0" y="1809.68" width="52.0" height="52.0"/>
<text x="226.0" y="1835.68">⌘1</text>
<rect rx="6.0" ry="6.0" x="256.0" y="1817.52" width="52.0" height="52.0"/>
<text x="282.0" y="1843.52">⌘0</text>
<rect rx="6.0" ry="6.0" x="424.0" y="1817.52" width="52.0" height="52.0"/>
<rect rx="6.0" ry="6.0" x="480.0" y="1809.68" width="52.0" height="52.0"/>
<text x="506.0" y="1835.68">⌘←</text>
<rect rx="6.0" ry="6.0" x="536.0" y="1794.0" width="52.0" height="52.0"/>
<text x="562.0" y="1820.0">⌘↓</text>
<rect rx="6.0" ry="6.0" x="592.0" y="1811.36" width="52.0" height="52.0"/>
<text x="618.0" y="1837.36">⌘↑</text>
<rect rx="6.0" ry="6.0" x="648.0" y="1846.08" width="52.0" height="52.0"/>
<text x="674.0" y="1872.08">⌘→</text>
<rect rx="6.0" ry="6.0" x="32.0" y="1902.08" width="52.0" height="52.0"/>
<rect rx="6.0" ry="6.0" x="88.0" y="1867.3600000000001" width="52.0" height="52.0"/>
<text x="114.0" y="1893.3600000000001">⌘9</text>
<rect rx="6.0" ry="6.0" x="144.0" y="1850.0" width="52.0" height="52.0"/>
<text x="170.0" y="1876.0">⌘8</text>
<rect rx="6.0" ry="6.0" x="200.0" y="1865.68" width="52.0" height="52.0"/>
<text x="226.0" y="1891.68">⌘7</text>
<rect rx="6.0" ry="6.0" x="256.0" y="1873.52" width="52.0" height="52.0"/>
<rect rx="6.0" ry="6.0" x="424.0" y="1873.52" width="52.0" height="52.0"/>
<rect rx="6.0" ry="6.0" x="480.0" y="1865.68" width="52.0" height="52.0"/>
<rect rx="6.0" ry="6.0" x="536.0" y="1850.0" width="52.0" height="52.0"/>
<rect rx="6.0" ry="6.0" x="592.0" y="1867.3600000000001" width="52.0" height="52.0"/>
<text x="618.0" y="1893.3600000000001">Alfred</text>
<rect rx="6.0" ry="6.0" x="648.0" y="1902.08" width="52.0" height="52.0"/>
<text x="674.0" y="1928.08">⌘↵</text>
<rect rx="6.0" ry="6.0" x="228.0" y="1948.0" width="52.0" height="52.0"/>
<text x="254.0" y="1974.0">λ</text>
<rect rx="6.0" ry="6.0" x="284.0" y="1962.0" width="52.0" height="52.0"/>
<text x="310.0" y="1988.0">⇧</text>
<rect rx="6.0" ry="6.0" x="396.0" y="1962.0" width="52.0" height="52.0"/>
<text x="422.0" y="1988.0">⌃</text>
<rect rx="6.0" ry="6.0" x="452.0" y="1948.0" width="52.0" height="52.0"/>
<text x="478.0" y="1974.0">#</text>
<path d="M366.0,1988.0 l-37.33333333333333,0.0"/>
<path d="M366.0,1988.0 l37.33333333333333,0.0"/>
<rect rx="6.0" ry="6.0" x="352.0" y="1975.0" width="28.0" height="26.0" class="combo"/>
<text x="366.0" y="1988.0" class="small">Hyper</text>
<rect rx="6.0" ry="6.0" x="268.0" y="1968.0" width="28.0" height="26.0" class="combo"/>
<text x="282.0" y="1981.0" class="small">⌘LC</text>
<text x="30.0" y="2044.0" class="label">Function:</text>
<rect rx="6.0" ry="6.0" x="32.0" y="2126.08" width="52.0" height="52.0"/>
<text x="58.0" y="2152.08">
<tspan x="58.0" dy="-0.6em">Boot</tspan><tspan x="58.0" dy="1.2em">Load</tspan></text>
<rect rx="6.0" ry="6.0" x="88.0" y="2091.36" width="52.0" height="52.0"/>
<rect rx="6.0" ry="6.0" x="144.0" y="2074.0" width="52.0" height="52.0"/>
<rect rx="6.0" ry="6.0" x="200.0" y="2089.68" width="52.0" height="52.0"/>
<rect rx="6.0" ry="6.0" x="256.0" y="2097.52" width="52.0" height="52.0"/>
<text x="282.0" y="2123.52">Reset</text>
<rect rx="6.0" ry="6.0" x="424.0" y="2097.52" width="52.0" height="52.0"/>
<text x="450.0" y="2123.52">Reset</text>
<rect rx="6.0" ry="6.0" x="480.0" y="2089.68" width="52.0" height="52.0"/>
<rect rx="6.0" ry="6.0" x="536.0" y="2074.0" width="52.0" height="52.0"/>
<rect rx="6.0" ry="6.0" x="592.0" y="2091.36" width="52.0" height="52.0"/>
<rect rx="6.0" ry="6.0" x="648.0" y="2126.08" width="52.0" height="52.0"/>
<text x="674.0" y="2152.08">
<tspan x="674.0" dy="-0.6em">Boot</tspan><tspan x="674.0" dy="1.2em">Load</tspan></text>
<rect rx="6.0" ry="6.0" x="32.0" y="2182.08" width="52.0" height="52.0"/>
<rect rx="6.0" ry="6.0" x="88.0" y="2147.36" width="52.0" height="52.0"/>
<text x="114.0" y="2173.36">BT4</text>
<rect rx="6.0" ry="6.0" x="144.0" y="2130.0" width="52.0" height="52.0"/>
<text x="170.0" y="2156.0">BT5</text>
<rect rx="6.0" ry="6.0" x="200.0" y="2145.68" width="52.0" height="52.0"/>
<text x="226.0" y="2171.68">BT6</text>
<rect rx="6.0" ry="6.0" x="256.0" y="2153.52" width="52.0" height="52.0"/>
<text x="282.0" y="2179.52">
<tspan x="282.0" dy="-0.6em">BT</tspan><tspan x="282.0" dy="1.2em">Clear</tspan></text>
<rect rx="6.0" ry="6.0" x="424.0" y="2153.52" width="52.0" height="52.0"/>
<rect rx="6.0" ry="6.0" x="480.0" y="2145.68" width="52.0" height="52.0"/>
<rect rx="6.0" ry="6.0" x="536.0" y="2130.0" width="52.0" height="52.0"/>
<rect rx="6.0" ry="6.0" x="592.0" y="2147.36" width="52.0" height="52.0"/>
<rect rx="6.0" ry="6.0" x="648.0" y="2182.08" width="52.0" height="52.0"/>
<rect rx="6.0" ry="6.0" x="32.0" y="2238.08" width="52.0" height="52.0"/>
<rect rx="6.0" ry="6.0" x="88.0" y="2203.36" width="52.0" height="52.0"/>
<text x="114.0" y="2229.36">BT1</text>
<rect rx="6.0" ry="6.0" x="144.0" y="2186.0" width="52.0" height="52.0"/>
<text x="170.0" y="2212.0">BT2</text>
<rect rx="6.0" ry="6.0" x="200.0" y="2201.68" width="52.0" height="52.0"/>
<text x="226.0" y="2227.68">BT3</text>
<rect rx="6.0" ry="6.0" x="256.0" y="2209.52" width="52.0" height="52.0"/>
<text x="282.0" y="2235.52">
<tspan x="282.0" dy="-0.6em">BT</tspan><tspan x="282.0" dy="1.2em">Toggl</tspan></text>
<rect rx="6.0" ry="6.0" x="424.0" y="2209.52" width="52.0" height="52.0"/>
<rect rx="6.0" ry="6.0" x="480.0" y="2201.68" width="52.0" height="52.0"/>
<rect rx="6.0" ry="6.0" x="536.0" y="2186.0" width="52.0" height="52.0"/>
<rect rx="6.0" ry="6.0" x="592.0" y="2203.36" width="52.0" height="52.0"/>
<rect rx="6.0" ry="6.0" x="648.0" y="2238.08" width="52.0" height="52.0"/>
<rect rx="6.0" ry="6.0" x="228.0" y="2284.0" width="52.0" height="52.0"/>
<text x="254.0" y="2310.0">A</text>
<rect rx="6.0" ry="6.0" x="284.0" y="2298.0" width="52.0" height="52.0"/>
<rect rx="6.0" ry="6.0" x="396.0" y="2298.0" width="52.0" height="52.0"/>
<rect rx="6.0" ry="6.0" x="452.0" y="2284.0" width="52.0" height="52.0"/>
</svg>
