<svg width="672.5" height="1912" viewBox="0 0 672.5 1912" xmlns="http://www.w3.org/2000/svg">
<style>
    svg {
        font-family: Menlo,SFMono-Regular,Consolas,Liberation Mono,monospace;
        font-size: 14px;
        font-kerning: normal;
        text-rendering: optimizeLegibility;
        fill: #24292e;
    }

    rect {
        fill: #f6f8fa;
        stroke: #d6d8da;
        stroke-width: 1;
    }

    .held {
        fill: #fdd;
    }

    .combo {
        fill: #cdf;
    }

    .ghost {
        fill: #ddd;
    }

    text {
        text-anchor: middle;
        dominant-baseline: middle;
    }

    .label {
        font-weight: bold;
        text-anchor: start;
        stroke: white;
        stroke-width: 2;
        paint-order: stroke;
    }

    .small {
        font-size: 80%;
    }
</style>
<text x="27.5" y="25.0" class="label">Alpha:</text>
<rect rx="6" ry="6" x="29.5" y="52" width="55" height="50"/>
<text x="57.0" y="77.0">W</text>
<rect rx="6" ry="6" x="88.5" y="52" width="55" height="50"/>
<text x="116.0" y="77.0">L</text>
<rect rx="6" ry="6" x="147.5" y="52" width="55" height="50"/>
<text x="175.0" y="77.0">Y</text>
<rect rx="6" ry="6" x="206.5" y="52" width="55" height="50"/>
<text x="234.0" y="77.0">P</text>
<rect rx="6" ry="6" x="265.5" y="52" width="55" height="50"/>
<text x="293.0" y="77.0">B</text>
<rect rx="6" ry="6" x="29.5" y="106" width="55" height="50"/>
<text x="57.0" y="131.0">C</text>
<rect rx="6" ry="6" x="88.5" y="106" width="55" height="50"/>
<text x="116.0" y="131.0">R</text>
<rect rx="6" ry="6" x="147.5" y="106" width="55" height="50"/>
<text x="175.0" y="131.0">S</text>
<rect rx="6" ry="6" x="206.5" y="106" width="55" height="50"/>
<text x="234.0" y="131.0">T</text>
<rect rx="6" ry="6" x="265.5" y="106" width="55" height="50"/>
<text x="293.0" y="131.0">G</text>
<rect rx="6" ry="6" x="29.5" y="160" width="55" height="50"/>
<text x="57.0" y="185.0">Q</text>
<rect rx="6" ry="6" x="88.5" y="160" width="55" height="50"/>
<text x="116.0" y="185.0">J</text>
<rect rx="6" ry="6" x="147.5" y="160" width="55" height="50"/>
<text x="175.0" y="185.0">V</text>
<rect rx="6" ry="6" x="206.5" y="160" width="55" height="50"/>
<text x="234.0" y="185.0">D</text>
<rect rx="6" ry="6" x="265.5" y="160" width="55" height="50"/>
<text x="293.0" y="185.0">K</text>
<rect rx="6" ry="6" x="352.0" y="52" width="55" height="50"/>
<text x="379.5" y="77.0">Z</text>
<rect rx="6" ry="6" x="411.0" y="52" width="55" height="50"/>
<text x="438.5" y="77.0">F</text>
<rect rx="6" ry="6" x="470.0" y="52" width="55" height="50"/>
<text x="497.5" y="77.0">O</text>
<rect rx="6" ry="6" x="529.0" y="52" width="55" height="50"/>
<text x="556.5" y="77.0">U</text>
<rect rx="6" ry="6" x="588.0" y="52" width="55" height="50"/>
<text x="615.5" y="77.0">&#x27;</text>
<rect rx="6" ry="6" x="352.0" y="106" width="55" height="50"/>
<text x="379.5" y="131.0">M</text>
<rect rx="6" ry="6" x="411.0" y="106" width="55" height="50"/>
<text x="438.5" y="131.0">N</text>
<rect rx="6" ry="6" x="470.0" y="106" width="55" height="50"/>
<text x="497.5" y="131.0">E</text>
<rect rx="6" ry="6" x="529.0" y="106" width="55" height="50"/>
<text x="556.5" y="131.0">I</text>
<rect rx="6" ry="6" x="588.0" y="106" width="55" height="50"/>
<text x="615.5" y="131.0">A</text>
<rect rx="6" ry="6" x="352.0" y="160" width="55" height="50"/>
<text x="379.5" y="185.0">X</text>
<rect rx="6" ry="6" x="411.0" y="160" width="55" height="50"/>
<text x="438.5" y="185.0">H</text>
<rect rx="6" ry="6" x="470.0" y="160" width="55" height="50"/>
<text x="497.5" y="185.0">.</text>
<rect rx="6" ry="6" x="529.0" y="160" width="55" height="50"/>
<text x="556.5" y="185.0">,</text>
<rect rx="6" ry="6" x="588.0" y="160" width="55" height="50"/>
<text x="615.5" y="185.0">↵</text>
<rect rx="6" ry="6" x="206.5" y="214" width="55" height="50"/>
<text x="234.0" y="239.0">⨧</text>
<rect rx="6" ry="6" x="265.5" y="214" width="55" height="50"/>
<text x="293.0" y="239.0">⌫</text>
<rect rx="6" ry="6" x="352.0" y="214" width="55" height="50"/>
<text x="379.5" y="239.0">␣</text>
<rect rx="6" ry="6" x="411.0" y="214" width="55" height="50"/>
<text x="438.5" y="239.0">⇥</text>
<text x="27.5" y="291.0" class="label">
<tspan x="27.5" dy="-0.6em">Alpha</tspan><tspan x="27.5" dy="1.2em">(hold):</tspan>
</text>
<rect rx="6" ry="6" x="29.5" y="318" width="55" height="50"/>
<text x="57.0" y="343.0">⌘W</text>
<rect rx="6" ry="6" x="88.5" y="318" width="55" height="50"/>
<text x="116.0" y="343.0">⌘L</text>
<rect rx="6" ry="6" x="147.5" y="318" width="55" height="50"/>
<text x="175.0" y="343.0">⌘Y</text>
<rect rx="6" ry="6" x="206.5" y="318" width="55" height="50"/>
<text x="234.0" y="343.0">⌘P</text>
<rect rx="6" ry="6" x="265.5" y="318" width="55" height="50"/>
<text x="293.0" y="343.0">⌘B</text>
<rect rx="6" ry="6" x="29.5" y="372" width="55" height="50"/>
<text x="57.0" y="397.0">⌘C</text>
<rect rx="6" ry="6" x="88.5" y="372" width="55" height="50"/>
<text x="116.0" y="397.0">⌘R</text>
<rect rx="6" ry="6" x="147.5" y="372" width="55" height="50"/>
<text x="175.0" y="397.0">⌘S</text>
<rect rx="6" ry="6" x="206.5" y="372" width="55" height="50"/>
<text x="234.0" y="397.0">⌘T</text>
<rect rx="6" ry="6" x="265.5" y="372" width="55" height="50"/>
<text x="293.0" y="397.0">⌘G</text>
<rect rx="6" ry="6" x="29.5" y="426" width="55" height="50"/>
<text x="57.0" y="451.0">⌘Q</text>
<rect rx="6" ry="6" x="88.5" y="426" width="55" height="50"/>
<text x="116.0" y="451.0">⌘J</text>
<rect rx="6" ry="6" x="147.5" y="426" width="55" height="50"/>
<text x="175.0" y="451.0">⌘V</text>
<rect rx="6" ry="6" x="206.5" y="426" width="55" height="50"/>
<text x="234.0" y="451.0">⌘D</text>
<rect rx="6" ry="6" x="265.5" y="426" width="55" height="50"/>
<text x="293.0" y="451.0">⌘K</text>
<rect rx="6" ry="6" x="352.0" y="318" width="55" height="50"/>
<text x="379.5" y="343.0">⌘Z</text>
<rect rx="6" ry="6" x="411.0" y="318" width="55" height="50"/>
<text x="438.5" y="343.0">⌘F</text>
<rect rx="6" ry="6" x="470.0" y="318" width="55" height="50"/>
<text x="497.5" y="343.0">⌘O</text>
<rect rx="6" ry="6" x="529.0" y="318" width="55" height="50"/>
<text x="556.5" y="343.0">⌘U</text>
<rect rx="6" ry="6" x="588.0" y="318" width="55" height="50"/>
<text x="615.5" y="343.0">Esc</text>
<rect rx="6" ry="6" x="352.0" y="372" width="55" height="50"/>
<text x="379.5" y="397.0">⌘M</text>
<rect rx="6" ry="6" x="411.0" y="372" width="55" height="50"/>
<text x="438.5" y="397.0">⌘N</text>
<rect rx="6" ry="6" x="470.0" y="372" width="55" height="50"/>
<text x="497.5" y="397.0">⌘E</text>
<rect rx="6" ry="6" x="529.0" y="372" width="55" height="50"/>
<text x="556.5" y="397.0">⌘I</text>
<rect rx="6" ry="6" x="588.0" y="372" width="55" height="50"/>
<text x="615.5" y="397.0">⌘A</text>
<rect rx="6" ry="6" x="352.0" y="426" width="55" height="50"/>
<text x="379.5" y="451.0">⌘X</text>
<rect rx="6" ry="6" x="411.0" y="426" width="55" height="50"/>
<text x="438.5" y="451.0">⌘H</text>
<rect rx="6" ry="6" x="470.0" y="426" width="55" height="50"/>
<text x="497.5" y="451.0">⇥</text>
<rect rx="6" ry="6" x="529.0" y="426" width="55" height="50"/>
<text x="556.5" y="451.0">Alfr</text>
<rect rx="6" ry="6" x="588.0" y="426" width="55" height="50"/>
<text x="615.5" y="451.0">⌘↵</text>
<rect rx="6" ry="6" x="206.5" y="480" width="55" height="50"/>
<text x="234.0" y="505.0">Sym</text>
<rect rx="6" ry="6" x="265.5" y="480" width="55" height="50"/>
<text x="293.0" y="505.0">Shft</text>
<rect rx="6" ry="6" x="352.0" y="480" width="55" height="50"/>
<text x="379.5" y="505.0">Ctrl</text>
<rect rx="6" ry="6" x="411.0" y="480" width="55" height="50"/>
<text x="438.5" y="505.0">Num</text>
<text x="27.5" y="557.0" class="label">Symbol:</text>
<rect rx="6" ry="6" x="29.5" y="584" width="55" height="50"/>
<text x="57.0" y="609.0">`</text>
<rect rx="6" ry="6" x="88.5" y="584" width="55" height="50"/>
<text x="116.0" y="609.0">~</text>
<rect rx="6" ry="6" x="147.5" y="584" width="55" height="50"/>
<text x="175.0" y="609.0">\</text>
<rect rx="6" ry="6" x="206.5" y="584" width="55" height="50"/>
<text x="234.0" y="609.0">{</text>
<rect rx="6" ry="6" x="265.5" y="584" width="55" height="50"/>
<text x="293.0" y="609.0">$</text>
<rect rx="6" ry="6" x="29.5" y="638" width="55" height="50"/>
<text x="57.0" y="663.0">&amp;</text>
<rect rx="6" ry="6" x="88.5" y="638" width="55" height="50"/>
<text x="116.0" y="663.0">*</text>
<rect rx="6" ry="6" x="147.5" y="638" width="55" height="50"/>
<text x="175.0" y="663.0">=</text>
<rect rx="6" ry="6" x="206.5" y="638" width="55" height="50"/>
<text x="234.0" y="663.0">(</text>
<rect rx="6" ry="6" x="265.5" y="638" width="55" height="50"/>
<text x="293.0" y="663.0">&lt;</text>
<rect rx="6" ry="6" x="29.5" y="692" width="55" height="50"/>
<text x="57.0" y="717.0">—</text>
<rect rx="6" ry="6" x="88.5" y="692" width="55" height="50"/>
<text x="116.0" y="717.0">@</text>
<rect rx="6" ry="6" x="147.5" y="692" width="55" height="50"/>
<text x="175.0" y="717.0">_</text>
<rect rx="6" ry="6" x="206.5" y="692" width="55" height="50"/>
<text x="234.0" y="717.0">[</text>
<rect rx="6" ry="6" x="265.5" y="692" width="55" height="50"/>
<text x="293.0" y="717.0">…</text>
<rect rx="6" ry="6" x="352.0" y="584" width="55" height="50"/>
<text x="379.5" y="609.0">%</text>
<rect rx="6" ry="6" x="411.0" y="584" width="55" height="50"/>
<text x="438.5" y="609.0">}</text>
<rect rx="6" ry="6" x="470.0" y="584" width="55" height="50"/>
<text x="497.5" y="609.0">/</text>
<rect rx="6" ry="6" x="529.0" y="584" width="55" height="50"/>
<text x="556.5" y="609.0">#</text>
<rect rx="6" ry="6" x="588.0" y="584" width="55" height="50"/>
<text x="615.5" y="609.0">&#x27;</text>
<rect rx="6" ry="6" x="352.0" y="638" width="55" height="50"/>
<text x="379.5" y="663.0">&gt;</text>
<rect rx="6" ry="6" x="411.0" y="638" width="55" height="50"/>
<text x="438.5" y="663.0">)</text>
<rect rx="6" ry="6" x="470.0" y="638" width="55" height="50"/>
<text x="497.5" y="663.0">-</text>
<rect rx="6" ry="6" x="529.0" y="638" width="55" height="50"/>
<text x="556.5" y="663.0">+</text>
<rect rx="6" ry="6" x="588.0" y="638" width="55" height="50"/>
<text x="615.5" y="663.0">|</text>
<rect rx="6" ry="6" x="352.0" y="692" width="55" height="50"/>
<text x="379.5" y="717.0">^</text>
<rect rx="6" ry="6" x="411.0" y="692" width="55" height="50"/>
<text x="438.5" y="717.0">]</text>
<rect rx="6" ry="6" x="470.0" y="692" width="55" height="50"/>
<text x="497.5" y="717.0">.</text>
<rect rx="6" ry="6" x="529.0" y="692" width="55" height="50"/>
<text x="556.5" y="717.0">,</text>
<rect rx="6" ry="6" x="588.0" y="692" width="55" height="50"/>
<text x="615.5" y="717.0">↵</text>
<rect rx="6" ry="6" x="206.5" y="746" width="55" height="50"/>
<text x="234.0" y="771.0">Sym</text>
<rect rx="6" ry="6" x="265.5" y="746" width="55" height="50"/>
<text x="293.0" y="771.0">⌫</text>
<rect rx="6" ry="6" x="352.0" y="746" width="55" height="50"/>
<text x="379.5" y="771.0">␣</text>
<rect rx="6" ry="6" x="411.0" y="746" width="55" height="50"/>
<text x="438.5" y="771.0">⇥</text>
<text x="27.5" y="823.0" class="label">
<tspan x="27.5" dy="-0.6em">Symbol</tspan><tspan x="27.5" dy="1.2em">(hold):</tspan>
</text>
<rect rx="6" ry="6" x="29.5" y="850" width="55" height="50"/>
<text x="57.0" y="875.0">⌘`</text>
<rect rx="6" ry="6" x="88.5" y="850" width="55" height="50"/>
<text x="116.0" y="875.0">⌘~</text>
<rect rx="6" ry="6" x="147.5" y="850" width="55" height="50"/>
<text x="175.0" y="875.0">⌘\</text>
<rect rx="6" ry="6" x="206.5" y="850" width="55" height="50"/>
<text x="234.0" y="875.0">⌘{</text>
<rect rx="6" ry="6" x="265.5" y="850" width="55" height="50"/>
<text x="293.0" y="875.0">⌘$</text>
<rect rx="6" ry="6" x="29.5" y="904" width="55" height="50"/>
<text x="57.0" y="929.0">⌘&amp;</text>
<rect rx="6" ry="6" x="88.5" y="904" width="55" height="50"/>
<text x="116.0" y="929.0">⌘*</text>
<rect rx="6" ry="6" x="147.5" y="904" width="55" height="50"/>
<text x="175.0" y="929.0">⌘=</text>
<rect rx="6" ry="6" x="206.5" y="904" width="55" height="50"/>
<text x="234.0" y="929.0">⌘(</text>
<rect rx="6" ry="6" x="265.5" y="904" width="55" height="50"/>
<text x="293.0" y="929.0">⌘&lt;</text>
<rect rx="6" ry="6" x="29.5" y="958" width="55" height="50"/>
<text x="57.0" y="983.0">⌘—</text>
<rect rx="6" ry="6" x="88.5" y="958" width="55" height="50"/>
<text x="116.0" y="983.0">⌘@</text>
<rect rx="6" ry="6" x="147.5" y="958" width="55" height="50"/>
<text x="175.0" y="983.0">⌘_</text>
<rect rx="6" ry="6" x="206.5" y="958" width="55" height="50"/>
<text x="234.0" y="983.0">⌘[</text>
<rect rx="6" ry="6" x="265.5" y="958" width="55" height="50"/>
<text x="293.0" y="983.0">⌘…</text>
<rect rx="6" ry="6" x="352.0" y="850" width="55" height="50"/>
<text x="379.5" y="875.0">⌘%</text>
<rect rx="6" ry="6" x="411.0" y="850" width="55" height="50"/>
<text x="438.5" y="875.0">⌘}</text>
<rect rx="6" ry="6" x="470.0" y="850" width="55" height="50"/>
<text x="497.5" y="875.0">⌘/</text>
<rect rx="6" ry="6" x="529.0" y="850" width="55" height="50"/>
<text x="556.5" y="875.0">⌘#</text>
<rect rx="6" ry="6" x="588.0" y="850" width="55" height="50"/>
<text x="615.5" y="875.0">Esc</text>
<rect rx="6" ry="6" x="352.0" y="904" width="55" height="50"/>
<text x="379.5" y="929.0">⌘&gt;</text>
<rect rx="6" ry="6" x="411.0" y="904" width="55" height="50"/>
<text x="438.5" y="929.0">⌘)</text>
<rect rx="6" ry="6" x="470.0" y="904" width="55" height="50"/>
<text x="497.5" y="929.0">⌘-</text>
<rect rx="6" ry="6" x="529.0" y="904" width="55" height="50"/>
<text x="556.5" y="929.0">⌘+</text>
<rect rx="6" ry="6" x="588.0" y="904" width="55" height="50"/>
<text x="615.5" y="929.0">⌘|</text>
<rect rx="6" ry="6" x="352.0" y="958" width="55" height="50"/>
<text x="379.5" y="983.0">⌘^</text>
<rect rx="6" ry="6" x="411.0" y="958" width="55" height="50"/>
<text x="438.5" y="983.0">⌘]</text>
<rect rx="6" ry="6" x="470.0" y="958" width="55" height="50"/>
<text x="497.5" y="983.0">⇥</text>
<rect rx="6" ry="6" x="529.0" y="958" width="55" height="50"/>
<text x="556.5" y="983.0">Alfr</text>
<rect rx="6" ry="6" x="588.0" y="958" width="55" height="50"/>
<text x="615.5" y="983.0">⌘↵</text>
<rect rx="6" ry="6" x="206.5" y="1012" width="55" height="50"/>
<text x="234.0" y="1037.0">Sym</text>
<rect rx="6" ry="6" x="265.5" y="1012" width="55" height="50"/>
<text x="293.0" y="1037.0">Shft</text>
<rect rx="6" ry="6" x="352.0" y="1012" width="55" height="50"/>
<text x="379.5" y="1037.0">Ctrl</text>
<rect rx="6" ry="6" x="411.0" y="1012" width="55" height="50"/>
<text x="438.5" y="1037.0">Num</text>
<text x="27.5" y="1089.0" class="label">Number:</text>
<rect rx="6" ry="6" x="29.5" y="1116" width="55" height="50"/>
<text x="57.0" y="1141.0">BrUp</text>
<rect rx="6" ry="6" x="88.5" y="1116" width="55" height="50"/>
<text x="116.0" y="1141.0">6</text>
<rect rx="6" ry="6" x="147.5" y="1116" width="55" height="50"/>
<text x="175.0" y="1141.0">5</text>
<rect rx="6" ry="6" x="206.5" y="1116" width="55" height="50"/>
<text x="234.0" y="1141.0">4</text>
<rect rx="6" ry="6" x="265.5" y="1116" width="55" height="50"/>
<text x="293.0" y="1141.0">ScSh</text>
<rect rx="6" ry="6" x="29.5" y="1170" width="55" height="50"/>
<text x="57.0" y="1195.0">Lang</text>
<rect rx="6" ry="6" x="88.5" y="1170" width="55" height="50"/>
<text x="116.0" y="1195.0">3</text>
<rect rx="6" ry="6" x="147.5" y="1170" width="55" height="50"/>
<text x="175.0" y="1195.0">2</text>
<rect rx="6" ry="6" x="206.5" y="1170" width="55" height="50"/>
<text x="234.0" y="1195.0">1</text>
<rect rx="6" ry="6" x="265.5" y="1170" width="55" height="50"/>
<text x="293.0" y="1195.0">0</text>
<rect rx="6" ry="6" x="29.5" y="1224" width="55" height="50"/>
<text x="57.0" y="1249.0">BrDn</text>
<rect rx="6" ry="6" x="88.5" y="1224" width="55" height="50"/>
<text x="116.0" y="1249.0">9</text>
<rect rx="6" ry="6" x="147.5" y="1224" width="55" height="50"/>
<text x="175.0" y="1249.0">8</text>
<rect rx="6" ry="6" x="206.5" y="1224" width="55" height="50"/>
<text x="234.0" y="1249.0">7</text>
<rect rx="6" ry="6" x="265.5" y="1224" width="55" height="50"/>
<text x="293.0" y="1249.0">Lock</text>
<rect rx="6" ry="6" x="352.0" y="1116" width="55" height="50"/>
<text x="379.5" y="1141.0">Mute</text>
<rect rx="6" ry="6" x="411.0" y="1116" width="55" height="50"/>
<text x="438.5" y="1141.0">Prev</text>
<rect rx="6" ry="6" x="470.0" y="1116" width="55" height="50"/>
<text x="497.5" y="1141.0">PlPs</text>
<rect rx="6" ry="6" x="529.0" y="1116" width="55" height="50"/>
<text x="556.5" y="1141.0">Next</text>
<rect rx="6" ry="6" x="588.0" y="1116" width="55" height="50"/>
<text x="615.5" y="1141.0">&#x27;</text>
<rect rx="6" ry="6" x="352.0" y="1170" width="55" height="50"/>
<text x="379.5" y="1195.0">VlUp</text>
<rect rx="6" ry="6" x="411.0" y="1170" width="55" height="50"/>
<text x="438.5" y="1195.0">Left</text>
<rect rx="6" ry="6" x="470.0" y="1170" width="55" height="50"/>
<text x="497.5" y="1195.0">Down</text>
<rect rx="6" ry="6" x="529.0" y="1170" width="55" height="50"/>
<text x="556.5" y="1195.0">Up</text>
<rect rx="6" ry="6" x="588.0" y="1170" width="55" height="50"/>
<text x="615.5" y="1195.0">Rght</text>
<rect rx="6" ry="6" x="352.0" y="1224" width="55" height="50"/>
<text x="379.5" y="1249.0">VlDn</text>
<rect rx="6" ry="6" x="411.0" y="1224" width="55" height="50"/>
<text x="438.5" y="1249.0">ZmIn</text>
<rect rx="6" ry="6" x="470.0" y="1224" width="55" height="50"/>
<text x="497.5" y="1249.0">.</text>
<rect rx="6" ry="6" x="529.0" y="1224" width="55" height="50"/>
<text x="556.5" y="1249.0">,</text>
<rect rx="6" ry="6" x="588.0" y="1224" width="55" height="50"/>
<text x="615.5" y="1249.0">↵</text>
<rect rx="6" ry="6" x="206.5" y="1278" width="55" height="50"/>
<text x="234.0" y="1303.0">⨧</text>
<rect rx="6" ry="6" x="265.5" y="1278" width="55" height="50"/>
<text x="293.0" y="1303.0">⌫</text>
<rect rx="6" ry="6" x="352.0" y="1278" width="55" height="50"/>
<text x="379.5" y="1303.0">␣</text>
<rect rx="6" ry="6" x="411.0" y="1278" width="55" height="50"/>
<text x="438.5" y="1303.0">Num</text>
<text x="27.5" y="1355.0" class="label">
<tspan x="27.5" dy="-0.6em">Number</tspan><tspan x="27.5" dy="1.2em">(hold):</tspan>
</text>
<rect rx="6" ry="6" x="29.5" y="1382" width="55" height="50"/>
<rect rx="6" ry="6" x="88.5" y="1382" width="55" height="50"/>
<text x="116.0" y="1407.0">⌘6</text>
<rect rx="6" ry="6" x="147.5" y="1382" width="55" height="50"/>
<text x="175.0" y="1407.0">⌘5</text>
<rect rx="6" ry="6" x="206.5" y="1382" width="55" height="50"/>
<text x="234.0" y="1407.0">⌘4</text>
<rect rx="6" ry="6" x="265.5" y="1382" width="55" height="50"/>
<rect rx="6" ry="6" x="29.5" y="1436" width="55" height="50"/>
<rect rx="6" ry="6" x="88.5" y="1436" width="55" height="50"/>
<text x="116.0" y="1461.0">⌘3</text>
<rect rx="6" ry="6" x="147.5" y="1436" width="55" height="50"/>
<text x="175.0" y="1461.0">⌘2</text>
<rect rx="6" ry="6" x="206.5" y="1436" width="55" height="50"/>
<text x="234.0" y="1461.0">⌘1</text>
<rect rx="6" ry="6" x="265.5" y="1436" width="55" height="50"/>
<text x="293.0" y="1461.0">⌘0</text>
<rect rx="6" ry="6" x="29.5" y="1490" width="55" height="50"/>
<rect rx="6" ry="6" x="88.5" y="1490" width="55" height="50"/>
<text x="116.0" y="1515.0">⌘9</text>
<rect rx="6" ry="6" x="147.5" y="1490" width="55" height="50"/>
<text x="175.0" y="1515.0">⌘8</text>
<rect rx="6" ry="6" x="206.5" y="1490" width="55" height="50"/>
<text x="234.0" y="1515.0">⌘7</text>
<rect rx="6" ry="6" x="265.5" y="1490" width="55" height="50"/>
<rect rx="6" ry="6" x="352.0" y="1382" width="55" height="50"/>
<rect rx="6" ry="6" x="411.0" y="1382" width="55" height="50"/>
<rect rx="6" ry="6" x="470.0" y="1382" width="55" height="50"/>
<rect rx="6" ry="6" x="529.0" y="1382" width="55" height="50"/>
<rect rx="6" ry="6" x="588.0" y="1382" width="55" height="50"/>
<text x="615.5" y="1407.0">Esc</text>
<rect rx="6" ry="6" x="352.0" y="1436" width="55" height="50"/>
<rect rx="6" ry="6" x="411.0" y="1436" width="55" height="50"/>
<text x="438.5" y="1461.0">⌘Left</text>
<rect rx="6" ry="6" x="470.0" y="1436" width="55" height="50"/>
<text x="497.5" y="1461.0">⌘Down</text>
<rect rx="6" ry="6" x="529.0" y="1436" width="55" height="50"/>
<text x="556.5" y="1461.0">⌘Up</text>
<rect rx="6" ry="6" x="588.0" y="1436" width="55" height="50"/>
<text x="615.5" y="1461.0">⌘Rght</text>
<rect rx="6" ry="6" x="352.0" y="1490" width="55" height="50"/>
<rect rx="6" ry="6" x="411.0" y="1490" width="55" height="50"/>
<rect rx="6" ry="6" x="470.0" y="1490" width="55" height="50"/>
<text x="497.5" y="1515.0">⇥</text>
<rect rx="6" ry="6" x="529.0" y="1490" width="55" height="50"/>
<text x="556.5" y="1515.0">Alfr</text>
<rect rx="6" ry="6" x="588.0" y="1490" width="55" height="50"/>
<text x="615.5" y="1515.0">⌘↵</text>
<rect rx="6" ry="6" x="206.5" y="1544" width="55" height="50"/>
<text x="234.0" y="1569.0">Sym</text>
<rect rx="6" ry="6" x="265.5" y="1544" width="55" height="50"/>
<text x="293.0" y="1569.0">Shft</text>
<rect rx="6" ry="6" x="352.0" y="1544" width="55" height="50"/>
<text x="379.5" y="1569.0">Ctrl</text>
<rect rx="6" ry="6" x="411.0" y="1544" width="55" height="50"/>
<text x="438.5" y="1569.0">Num</text>
<text x="27.5" y="1621.0" class="label">Function:</text>
<rect rx="6" ry="6" x="29.5" y="1648" width="55" height="50"/>
<text x="57.0" y="1673.0">BtlL</text>
<rect rx="6" ry="6" x="88.5" y="1648" width="55" height="50"/>
<rect rx="6" ry="6" x="147.5" y="1648" width="55" height="50"/>
<rect rx="6" ry="6" x="206.5" y="1648" width="55" height="50"/>
<rect rx="6" ry="6" x="265.5" y="1648" width="55" height="50"/>
<text x="293.0" y="1673.0">RstL</text>
<rect rx="6" ry="6" x="29.5" y="1702" width="55" height="50"/>
<rect rx="6" ry="6" x="88.5" y="1702" width="55" height="50"/>
<text x="116.0" y="1727.0">BT4</text>
<rect rx="6" ry="6" x="147.5" y="1702" width="55" height="50"/>
<text x="175.0" y="1727.0">BT5</text>
<rect rx="6" ry="6" x="206.5" y="1702" width="55" height="50"/>
<text x="234.0" y="1727.0">BT6</text>
<rect rx="6" ry="6" x="265.5" y="1702" width="55" height="50"/>
<text x="293.0" y="1727.0">BTCl</text>
<rect rx="6" ry="6" x="29.5" y="1756" width="55" height="50"/>
<rect rx="6" ry="6" x="88.5" y="1756" width="55" height="50"/>
<text x="116.0" y="1781.0">BT1</text>
<rect rx="6" ry="6" x="147.5" y="1756" width="55" height="50"/>
<text x="175.0" y="1781.0">BT2</text>
<rect rx="6" ry="6" x="206.5" y="1756" width="55" height="50"/>
<text x="234.0" y="1781.0">BT3</text>
<rect rx="6" ry="6" x="265.5" y="1756" width="55" height="50"/>
<text x="293.0" y="1781.0">BTTg</text>
<rect rx="6" ry="6" x="352.0" y="1648" width="55" height="50"/>
<text x="379.5" y="1673.0">RstR</text>
<rect rx="6" ry="6" x="411.0" y="1648" width="55" height="50"/>
<rect rx="6" ry="6" x="470.0" y="1648" width="55" height="50"/>
<rect rx="6" ry="6" x="529.0" y="1648" width="55" height="50"/>
<rect rx="6" ry="6" x="588.0" y="1648" width="55" height="50"/>
<text x="615.5" y="1673.0">BtlR</text>
<rect rx="6" ry="6" x="352.0" y="1702" width="55" height="50"/>
<rect rx="6" ry="6" x="411.0" y="1702" width="55" height="50"/>
<rect rx="6" ry="6" x="470.0" y="1702" width="55" height="50"/>
<rect rx="6" ry="6" x="529.0" y="1702" width="55" height="50"/>
<rect rx="6" ry="6" x="588.0" y="1702" width="55" height="50"/>
<rect rx="6" ry="6" x="352.0" y="1756" width="55" height="50"/>
<rect rx="6" ry="6" x="411.0" y="1756" width="55" height="50"/>
<rect rx="6" ry="6" x="470.0" y="1756" width="55" height="50"/>
<rect rx="6" ry="6" x="529.0" y="1756" width="55" height="50"/>
<rect rx="6" ry="6" x="588.0" y="1756" width="55" height="50"/>
<rect rx="6" ry="6" x="206.5" y="1810" width="55" height="50"/>
<text x="234.0" y="1835.0">Alph</text>
<rect rx="6" ry="6" x="265.5" y="1810" width="55" height="50"/>
<rect rx="6" ry="6" x="352.0" y="1810" width="55" height="50"/>
<rect rx="6" ry="6" x="411.0" y="1810" width="55" height="50"/>
</svg>
